G04 DipTrace 3.1.0.1*
G04 BottomMask.gbr*
%MOIN*%
G04 #@! TF.FileFunction,Soldermask,Bot*
G04 #@! TF.Part,Single*
%AMOUTLINE0*5,1,8,0,0,0.064944,-67.499833*%
%AMOUTLINE2*5,1,4,0,0,0.089262,-135.0*%
%ADD35C,0.116*%
%ADD46R,0.094614X0.08674*%
%ADD48C,0.072*%
%ADD50C,0.082803*%
%ADD52R,0.082803X0.082803*%
%ADD54C,0.067055*%
%ADD56C,0.198*%
%ADD60R,0.055244X0.08674*%
%ADD62C,0.06115*%
%ADD64C,0.078*%
%ADD66C,0.063118*%
%ADD68C,0.106425*%
%ADD70C,0.114299*%
%ADD81OUTLINE0*%
%ADD83OUTLINE2*%
%FSLAX26Y26*%
G04*
G70*
G90*
G75*
G01*
G04 BotMask*
%LPD*%
D81*
X4194000Y2297937D3*
X4094000D3*
X4194000Y2197937D3*
X4094000D3*
X4194000Y2097937D3*
X4094000D3*
X4194000Y1997937D3*
X4094000D3*
X4194000Y1897937D3*
X4094000D3*
X4194000Y1797937D3*
X4094000D3*
X4194000Y1697937D3*
X4094000D3*
X4194000Y1597937D3*
X4094000D3*
X4194000Y1497937D3*
X4094000D3*
X4194000Y1397937D3*
X4094000D3*
X1316688Y2075251D3*
X1433764Y2398724D3*
X1533764D3*
X1633764D3*
X1733764D3*
X1833764D3*
X3493213D3*
X3593213D3*
X3693213D3*
X3793213D3*
X2393213Y498724D3*
X2493213D3*
X2593213D3*
X2693213D3*
X2793213D3*
X2893213D3*
X2993213D3*
X3093213D3*
D70*
X3406500Y1935437D3*
X3606500D3*
Y2135437D3*
X3406500D3*
D68*
X3506500Y2035437D3*
D70*
X2781500Y1935437D3*
X2981500D3*
Y2135437D3*
X2781500D3*
D68*
X2881500Y2035437D3*
D70*
X2156500Y1935437D3*
X2356500D3*
Y2135437D3*
X2156500D3*
D68*
X2256500Y2035437D3*
D83*
X1562749Y1966686D3*
D66*
X1641490D3*
X1720230D3*
D64*
X541688Y1294000D3*
D81*
X2569000Y2035437D3*
X1944000D3*
D62*
X2981500Y1685437D3*
X3237406D3*
D60*
X3344000Y1347937D3*
Y1458173D3*
X3444000D3*
Y1347937D3*
D81*
X3194000Y2035437D3*
X2969000Y1360437D3*
X2972937Y1206500D3*
X2969000Y1047937D3*
D35*
X569000Y522937D3*
Y1743407D3*
D56*
X831500Y660437D3*
X956500Y847937D3*
X719000D3*
D81*
X1796937Y495000D3*
X1896937D3*
D35*
X4427270Y522937D3*
X4427000Y1743407D3*
D54*
X2471769Y794000D3*
X2550509D3*
X2629249D3*
X2707990D3*
X2786730D3*
X2865470D3*
X2944210D3*
X3022950D3*
D64*
X641688Y1294000D3*
X841688D3*
X941688D3*
X1041686D3*
D62*
X2504186Y1356500D3*
X2760092D3*
X2504186Y1206500D3*
X2760092D3*
X2504186Y1050249D3*
X2760092D3*
D52*
X1554188Y681500D3*
D50*
Y781500D3*
Y881500D3*
D52*
Y1331500D3*
D50*
Y1431500D3*
Y1531500D3*
D48*
X1081697Y1462751D3*
Y1541751D3*
X837946Y1462751D3*
Y1541751D3*
D46*
X1216686Y1562749D3*
Y1444639D3*
X704186Y1444000D3*
Y1562110D3*
X1372938Y1312751D3*
Y1430861D3*
Y662749D3*
Y780860D3*
X1722937Y762749D3*
Y880860D3*
Y1531500D3*
Y1413390D3*
M02*
