G04 DipTrace 3.1.0.1*
G04 Bottom.gbr*
%MOIN*%
G04 #@! TF.FileFunction,Copper,L2,Bot*
G04 #@! TF.Part,Single*
%AMOUTLINE0*5,1,8,0,0,0.064944,-67.499833*%
%AMOUTLINE1*5,1,4,0,0,0.077949,-135.0*%
G04 #@! TA.AperFunction,Conductor*
%ADD13C,0.012992*%
%ADD14C,0.013*%
G04 #@! TA.AperFunction,ComponentPad*
%ADD18C,0.106299*%
%ADD19C,0.098425*%
%ADD20C,0.055118*%
%ADD21C,0.07*%
%ADD22C,0.05315*%
%ADD24R,0.047244X0.07874*%
G04 #@! TA.AperFunction,ComponentPad*
%ADD26C,0.19*%
%ADD27C,0.059055*%
%ADD28R,0.074803X0.074803*%
%ADD29C,0.074803*%
%ADD30C,0.064*%
%ADD32R,0.086614X0.07874*%
G04 #@! TA.AperFunction,ViaPad*
%ADD33C,0.04*%
G04 #@! TA.AperFunction,ComponentPad*
%ADD81OUTLINE0*%
%ADD82OUTLINE1*%
%FSLAX26Y26*%
G04*
G70*
G90*
G75*
G01*
G04 Bottom*
%LPD*%
X1720230Y1966686D2*
D13*
Y1896411D1*
X2222937Y1393703D1*
Y550249D1*
X2166688Y494000D1*
X1897937D1*
X1896937Y495000D1*
X3344000Y1260437D2*
Y1347937D1*
X956500Y847937D2*
D14*
X969000D1*
X797937Y1019000D1*
X660437D1*
X541688Y1137749D1*
Y1294000D1*
X3406500Y1210437D2*
D13*
X3408354D1*
X3442007Y1244089D1*
Y1345944D1*
X3444000Y1347937D1*
X3832705Y2247425D2*
X4164063D1*
X4194000Y2277362D1*
Y2297937D1*
X4031008Y2147425D2*
X4151572D1*
X4194000Y2189853D1*
Y2197937D1*
X3947665Y2097937D2*
X4094000D1*
X3705122Y1310437D2*
Y1947425D1*
X3731106Y1973409D1*
X3924157D1*
X3998173Y2047425D1*
X4151583D1*
X4194000Y2089843D1*
Y2097937D1*
X3667650Y1260437D2*
X3718626D1*
X3744610Y1286421D1*
Y1921441D1*
X3770594Y1947425D1*
X4051583D1*
X4094000Y1989843D1*
Y1997937D1*
X3849571Y1160437D2*
Y1721441D1*
X3875555Y1747425D1*
X4143488D1*
Y1861496D1*
X4107047Y1897937D1*
X4094000D1*
X4282976Y1110437D2*
Y1871953D1*
X4256992Y1897937D1*
X4194000D1*
X3770594Y1060437D2*
Y1771953D1*
X3796579Y1797937D1*
X4094000D1*
X4243488Y1010437D2*
Y1755245D1*
X4200797Y1797937D1*
X4194000D1*
X3928547Y960437D2*
Y1671953D1*
X3954531Y1697937D1*
X4094000D1*
X3968035Y910437D2*
Y1621441D1*
X3994020Y1647425D1*
X4151625D1*
X4194000Y1689801D1*
Y1697937D1*
X3291362Y910437D2*
X3330850Y870949D1*
X4007524D1*
Y1571953D1*
X4033508Y1597937D1*
X4094000D1*
X4143488Y761713D2*
Y1558030D1*
X4183395Y1597937D1*
X4194000D1*
X3889059Y1249925D2*
Y1025909D1*
X3863075Y999925D1*
X3617012D1*
X3456500Y1160437D1*
X3156157Y814697D2*
X4007524D1*
X4033508Y840681D1*
Y1441799D1*
X4089646Y1497937D1*
X4094000D1*
Y814701D2*
Y1397937D1*
X4194000Y867689D2*
Y1397937D1*
X1641490Y1966686D2*
Y1984152D1*
X1433764Y2191878D1*
Y2398724D1*
X3406500Y1935437D2*
Y1929188D1*
X3325249Y1847937D1*
Y1722936D1*
X3287751Y1685437D1*
X3237406D1*
X3506500Y2035437D2*
X3767228D1*
X3793213Y2061421D1*
Y2398724D1*
X837946Y1541751D2*
D14*
Y1544000D1*
X791686D1*
X773576Y1562110D1*
X704186D1*
X1554188Y781500D2*
X1373579D1*
X1372938Y780860D1*
X1633764Y2398724D2*
D13*
Y2186421D1*
X2881500Y2035437D2*
Y1672937D1*
X1944000Y2035437D2*
X2256500D1*
Y722937D1*
X2337749Y641688D1*
X2993213D1*
Y498724D1*
X2981500Y1685437D2*
Y1935437D1*
X2972937Y1206500D2*
X2985437D1*
X3056500Y1277563D1*
Y1610437D1*
X2981500Y1685437D1*
X3344000Y1458173D2*
Y1460437D1*
X3441736D1*
X3444000Y1458173D1*
X704186Y1444000D2*
D14*
X710437D1*
X772937Y1381500D1*
X904188D1*
X941688Y1344000D1*
Y1294000D1*
X1216686Y1444639D2*
Y1450249D1*
X1147937Y1381500D1*
X979188D1*
X941688Y1344000D1*
X1554188Y1431500D2*
X1373577D1*
X1372938Y1430861D1*
X1554188Y1431500D2*
X1686717D1*
X1704827D1*
X1722937Y1413390D1*
X1554188Y681500D2*
X1391689D1*
X1372938Y662749D1*
X1216686Y1444639D2*
X1359160D1*
X1372938Y1430861D1*
X1722937Y1412749D2*
X1686717Y1431500D1*
X941688Y1294000D2*
Y1094000D1*
X1372938Y662749D1*
X1554188Y681500D2*
X1641688D1*
X1722937Y762749D1*
X1910436D1*
X2154186Y1006500D1*
X1081697Y1541751D2*
X1126938D1*
X1147937Y1562749D1*
X1216686D1*
X1554188Y1531500D2*
X1722937D1*
X1554188Y881500D2*
X1722297D1*
X1722937Y880860D1*
D33*
X3344000Y1460437D3*
Y1260437D3*
X3832705Y2247425D3*
X4031008Y2147425D3*
X3947665Y2097937D3*
X3705122Y1310437D3*
X3667650Y1260437D3*
X3849571Y1160437D3*
X4282976Y1110437D3*
X3770594Y1060437D3*
X4243488Y1010437D3*
X3928547Y960437D3*
X3968035Y910437D3*
X3291362D3*
X4143488Y761713D3*
X3456500Y1160437D3*
X3889059Y1249925D3*
X3156157Y814697D3*
X4094000Y814701D3*
X4194000Y867689D3*
X3406500Y1210437D3*
X1633764Y2186421D3*
X2881500Y1672937D3*
X1372937Y1312751D3*
X1722937Y1531500D3*
Y1412749D3*
X1372937Y781500D3*
X1722937Y881500D3*
X2154186Y1006500D3*
D81*
X4194000Y2297937D3*
X4094000D3*
X4194000Y2197937D3*
X4094000D3*
X4194000Y2097937D3*
X4094000D3*
X4194000Y1997937D3*
X4094000D3*
X4194000Y1897937D3*
X4094000D3*
X4194000Y1797937D3*
X4094000D3*
X4194000Y1697937D3*
X4094000D3*
X4194000Y1597937D3*
X4094000D3*
X4194000Y1497937D3*
X4094000D3*
X4194000Y1397937D3*
X4094000D3*
X1316688Y2075251D3*
X1433764Y2398724D3*
X1533764D3*
X1633764D3*
X1733764D3*
X1833764D3*
X3493213D3*
X3593213D3*
X3693213D3*
X3793213D3*
X2393213Y498724D3*
X2493213D3*
X2593213D3*
X2693213D3*
X2793213D3*
X2893213D3*
X2993213D3*
X3093213D3*
D18*
X3406500Y1935437D3*
X3606500D3*
Y2135437D3*
X3406500D3*
D19*
X3506500Y2035437D3*
D18*
X2781500Y1935437D3*
X2981500D3*
Y2135437D3*
X2781500D3*
D19*
X2881500Y2035437D3*
D18*
X2156500Y1935437D3*
X2356500D3*
Y2135437D3*
X2156500D3*
D19*
X2256500Y2035437D3*
D82*
X1562749Y1966686D3*
D20*
X1641490D3*
X1720230D3*
D21*
X541688Y1294000D3*
D81*
X2569000Y2035437D3*
X1944000D3*
D22*
X2981500Y1685437D3*
X3237406D3*
D24*
X3344000Y1347937D3*
Y1458173D3*
X3444000D3*
Y1347937D3*
D81*
X3194000Y2035437D3*
X2969000Y1360437D3*
X2972937Y1206500D3*
X2969000Y1047937D3*
D26*
X831500Y660437D3*
X956500Y847937D3*
X719000D3*
D81*
X1796937Y495000D3*
X1896937D3*
D27*
X2471769Y794000D3*
X2550509D3*
X2629249D3*
X2707990D3*
X2786730D3*
X2865470D3*
X2944210D3*
X3022950D3*
D21*
X641688Y1294000D3*
X841688D3*
X941688D3*
X1041686D3*
D22*
X2504186Y1356500D3*
X2760092D3*
X2504186Y1206500D3*
X2760092D3*
X2504186Y1050249D3*
X2760092D3*
D28*
X1554188Y681500D3*
D29*
Y781500D3*
Y881500D3*
D28*
Y1331500D3*
D29*
Y1431500D3*
Y1531500D3*
D30*
X1081697Y1462751D3*
Y1541751D3*
X837946Y1462751D3*
Y1541751D3*
D32*
X1216686Y1562749D3*
Y1444639D3*
X704186Y1444000D3*
Y1562110D3*
X1372938Y1312751D3*
Y1430861D3*
Y662749D3*
Y780860D3*
X1722937Y762749D3*
Y880860D3*
Y1531500D3*
Y1413390D3*
M02*
