M48
INCH
T01C0.0191
T02C0.0276
T03C0.0315
T04C0.0394
T05C0.04
T06C0.0433
T07C0.045
T08C0.0591
T09C0.0669
T10C0.116
T11C0.13
%
T01
X+033440Y+014604
X+033440Y+012604
X+034065Y+012104
X+034565Y+011604
X+036676Y+012604
X+037051Y+013104
X+038891Y+012499
X+038496Y+011604
X+037706Y+010604
X+039285Y+009604
X+039680Y+009104
X+040940Y+008147
X+041435Y+007617
X+041940Y+008677
X+042435Y+010104
X+042830Y+011104
X+032914Y+009104
X+031562Y+008147
X+028815Y+016729
X+021542Y+010065
X+017229Y+008815
X+013729Y+007815
X+013729Y+013128
X+017229Y+014127
X+017229Y+015315
X+016338Y+021864
X+038327Y+022474
X+039477Y+020979
X+040310Y+021474
T02
X+015627Y+019667
X+016415Y+019667
X+017202Y+019667
X+024718Y+007940
X+025505Y+007940
X+026292Y+007940
X+027080Y+007940
X+027867Y+007940
X+028655Y+007940
X+029442Y+007940
X+030230Y+007940
T03
X+029815Y+016854
X+032374Y+016854
X+027601Y+013565
X+027601Y+012065
X+027601Y+010502
X+025042Y+010502
X+025042Y+012065
X+025042Y+013565
T04
X+010817Y+014628
X+010817Y+015418
X+008379Y+015418
X+008379Y+014628
T05
X+041940Y+022979
X+040940Y+022979
X+040940Y+021979
X+041940Y+021979
X+041940Y+020979
X+040940Y+020979
X+040940Y+019979
X+041940Y+019979
X+041940Y+018979
X+040940Y+018979
X+040940Y+017979
X+041940Y+017979
X+041940Y+016979
X+040940Y+016979
X+040940Y+015979
X+041940Y+015979
X+041940Y+014979
X+040940Y+014979
X+040940Y+013979
X+041940Y+013979
X+037932Y+023987
X+036932Y+023987
X+035932Y+023987
X+034932Y+023987
X+031940Y+020354
X+025690Y+020354
X+019440Y+020354
X+018338Y+023987
X+017338Y+023987
X+016338Y+023987
X+015338Y+023987
X+014338Y+023987
X+013167Y+020753
X+017969Y+004950
X+018969Y+004950
X+023932Y+004987
X+024932Y+004987
X+025932Y+004987
X+026932Y+004987
X+027932Y+004987
X+028932Y+004987
X+029932Y+004987
X+030932Y+004987
X+029690Y+010479
X+029729Y+012065
X+029690Y+013604
T06
X+015542Y+006815
X+015542Y+007815
X+015542Y+008815
X+015542Y+013315
X+015542Y+014315
X+015542Y+015315
T07
X+005417Y+012940
X+006417Y+012940
X+008417Y+012940
X+009417Y+012940
X+010417Y+012940
T08
X+035065Y+020354
X+028815Y+020354
X+022565Y+020354
T09
X+034065Y+019354
X+036065Y+019354
X+036065Y+021354
X+034065Y+021354
X+029815Y+021354
X+029815Y+019354
X+027815Y+019354
X+027815Y+021354
X+023565Y+021354
X+023565Y+019354
X+021565Y+019354
X+021565Y+021354
T10
X+005690Y+005229
X+005690Y+017434
X+044270Y+017434
X+044273Y+005229
T11
X+008315Y+006604
X+007190Y+008479
X+009565Y+008479
T00
M30
