G04 DipTrace 3.1.0.1*
G04 Top.gbr*
%MOIN*%
G04 #@! TF.FileFunction,Copper,L1,Top*
G04 #@! TF.Part,Single*
%AMOUTLINE0*5,1,8,0,0,0.064944,-67.499833*%
%AMOUTLINE1*5,1,4,0,0,0.077949,-135.0*%
G04 #@! TA.AperFunction,Conductor*
%ADD13C,0.012992*%
%ADD14C,0.013*%
%ADD17R,0.07874X0.023622*%
G04 #@! TA.AperFunction,ComponentPad*
%ADD18C,0.106299*%
%ADD19C,0.098425*%
%ADD20C,0.055118*%
%ADD21C,0.07*%
%ADD22C,0.05315*%
%ADD25R,0.070866X0.062992*%
G04 #@! TA.AperFunction,ComponentPad*
%ADD26C,0.19*%
%ADD27C,0.059055*%
%ADD28R,0.074803X0.074803*%
%ADD29C,0.074803*%
%ADD30C,0.064*%
G04 #@! TA.AperFunction,ViaPad*
%ADD33C,0.04*%
G04 #@! TA.AperFunction,ComponentPad*
%ADD81OUTLINE0*%
%ADD82OUTLINE1*%
%FSLAX26Y26*%
G04*
G70*
G90*
G75*
G01*
G04 Top*
%LPD*%
X3344000Y1260437D2*
D13*
X3219000D1*
X3069000D1*
X2969000Y1360437D1*
X2760092Y1356500D2*
D14*
X2965063D1*
X2969000Y1360437D1*
X3219000Y1210437D2*
D13*
X3406500D1*
X3219000D2*
X3131500D1*
X2969000Y1047937D1*
X2760092Y1050249D2*
D14*
X2966688D1*
X2969000Y1047937D1*
X719000Y847937D2*
Y1216688D1*
X641688Y1294000D1*
X4094000Y2297937D2*
D13*
X3793217D1*
X3767232Y2271953D1*
Y1586421D1*
X3741248Y1560437D1*
X3589079D1*
X3832705Y2247425D2*
Y1536421D1*
X3806720Y1510437D1*
X3589079D1*
X4094000Y2197937D2*
X3891927D1*
X3865942Y2171953D1*
Y1486420D1*
X3839959Y1460437D1*
X3589079D1*
X4031008Y2147425D2*
X3924161D1*
X3898177Y2121441D1*
Y1436421D1*
X3872193Y1410437D1*
X3589079D1*
X3947665Y2097937D2*
Y1386421D1*
X3921681Y1360437D1*
X3589079D1*
X3705122Y1310437D2*
X3589079D1*
X3667650Y1260437D2*
X3589079D1*
X4194000Y1997937D2*
Y1996083D1*
X4145343Y1947425D1*
X4017508D1*
X3991524Y1921441D1*
Y1315398D1*
X3965539Y1289413D1*
X3830173D1*
X3751197Y1210437D1*
X3589079D1*
X3849571Y1160437D2*
X3589079D1*
X4282976Y1110437D2*
X3589079D1*
X3770594Y1060437D2*
X3589079D1*
X4243488Y1010437D2*
X3589079D1*
X3928547Y960437D2*
X3589079D1*
X3968035Y910437D2*
X3589079D1*
X3291362D2*
X3219000D1*
X4143488Y761713D2*
X3356835D1*
X3330850Y787697D1*
Y934453D1*
X3304866Y960437D1*
X3219000D1*
X3456500Y1160437D2*
X3219000D1*
X3889059Y1249925D2*
X4117504D1*
X4143488Y1275909D1*
Y1458020D1*
X4183406Y1497937D1*
X4194000D1*
X3156157Y814697D2*
Y1110437D1*
X3219000D1*
X4094000Y814701D2*
X3411346D1*
X3385362Y840685D1*
Y984453D1*
X3359378Y1010437D1*
X3219000D1*
X4194000Y867689D2*
X3465598D1*
X3439614Y893673D1*
Y1034453D1*
X3413630Y1060437D1*
X3219000D1*
Y1560437D2*
X3160138D1*
X3134154Y1586421D1*
Y1659454D1*
X3166387Y1691688D1*
X3114075Y1744000D1*
X1823228D1*
X1641490Y1925739D1*
Y1916689D1*
X1069000D1*
X3237406Y1685437D2*
X3166387D1*
Y1691688D1*
X819000Y1916689D2*
X1069000D1*
X556500D2*
X738094D1*
X819000D1*
X1641490Y1966686D2*
Y1925739D1*
X2356500Y1935437D2*
Y1841686D1*
X2406500Y1791686D1*
X3144436D1*
X3250685Y1685437D1*
X3237406D1*
X1316688Y2075251D2*
Y2056500D1*
X1341688D1*
X1431501Y1966686D1*
X1562749D1*
X1724738Y2128675D1*
X1726320D1*
X1996370Y2398724D1*
X3493213D1*
X841688Y1294000D2*
D14*
Y1459009D1*
X837946Y1462751D1*
X3506500Y2035437D2*
D13*
X3194000D1*
X837946Y1541751D2*
D14*
X801937D1*
X735437Y1475251D1*
Y1300251D1*
X1254188Y781500D1*
X1372937D1*
X1633764Y2186421D2*
D13*
X556500D1*
Y2245673D1*
X2881500Y1672937D2*
X3094000Y1460437D1*
X3219000D1*
X2881500Y2035437D2*
X2569000D1*
X2993213Y498724D2*
Y744997D1*
X2944210Y794000D1*
X1733764Y2398724D2*
Y2322640D1*
X1707780Y2296657D1*
X819000D1*
Y2245673D1*
X1833764Y2398724D2*
Y2271656D1*
X1807781Y2245673D1*
X1069000D1*
X556500Y2135437D2*
Y2026925D1*
X819000Y2135437D2*
Y2026925D1*
X1069000Y2135437D2*
Y2026925D1*
X2981500Y1685437D2*
X3156500Y1510437D1*
X3219000D1*
X3344000Y1460437D2*
Y1472937D1*
X3306500Y1510437D1*
X3219000D1*
X2760092Y1206500D2*
D14*
X2972937D1*
X1722937Y1412749D2*
X2297937D1*
X2504186Y1206500D1*
X2154186Y1006500D2*
X2304186D1*
X2504186Y1206500D1*
X2393213Y498724D2*
D13*
Y715444D1*
X2471769Y794000D1*
X2493213Y498724D2*
Y736703D1*
X2550509Y794000D1*
X2593213Y498724D2*
Y757963D1*
X2629249Y794000D1*
X2693213Y498724D2*
Y779223D1*
X2707990Y794000D1*
X2793213Y498724D2*
Y787517D1*
X2786730Y794000D1*
X2893213Y498724D2*
Y766257D1*
X2865470Y794000D1*
X3093213Y498724D2*
Y723738D1*
X3022950Y794000D1*
X1081697Y1462751D2*
D14*
Y1334010D1*
X1041686Y1294000D1*
X1372937Y1312751D2*
X1310697D1*
X1081697Y1541751D1*
X1372937Y1312751D2*
X1454189D1*
X1472938Y1331500D1*
X1554188D1*
X1722937Y1531500D2*
X2329186D1*
X2504186Y1356500D1*
X1722937Y881500D2*
X2335437D1*
X2504186Y1050249D1*
D33*
X3344000Y1460437D3*
Y1260437D3*
X3832705Y2247425D3*
X4031008Y2147425D3*
X3947665Y2097937D3*
X3705122Y1310437D3*
X3667650Y1260437D3*
X3849571Y1160437D3*
X4282976Y1110437D3*
X3770594Y1060437D3*
X4243488Y1010437D3*
X3928547Y960437D3*
X3968035Y910437D3*
X3291362D3*
X4143488Y761713D3*
X3456500Y1160437D3*
X3889059Y1249925D3*
X3156157Y814697D3*
X4094000Y814701D3*
X4194000Y867689D3*
X3406500Y1210437D3*
X1633764Y2186421D3*
X2881500Y1672937D3*
X1372937Y1312751D3*
X1722937Y1531500D3*
Y1412749D3*
X1372937Y781500D3*
X1722937Y881500D3*
X2154186Y1006500D3*
D81*
X4194000Y2297937D3*
X4094000D3*
X4194000Y2197937D3*
X4094000D3*
X4194000Y2097937D3*
X4094000D3*
X4194000Y1997937D3*
X4094000D3*
X4194000Y1897937D3*
X4094000D3*
X4194000Y1797937D3*
X4094000D3*
X4194000Y1697937D3*
X4094000D3*
X4194000Y1597937D3*
X4094000D3*
X4194000Y1497937D3*
X4094000D3*
X4194000Y1397937D3*
X4094000D3*
X1316688Y2075251D3*
X1433764Y2398724D3*
X1533764D3*
X1633764D3*
X1733764D3*
X1833764D3*
X3493213D3*
X3593213D3*
X3693213D3*
X3793213D3*
X2393213Y498724D3*
X2493213D3*
X2593213D3*
X2693213D3*
X2793213D3*
X2893213D3*
X2993213D3*
X3093213D3*
D17*
X3219000Y1560437D3*
Y1510437D3*
Y1460437D3*
Y1410437D3*
Y1360437D3*
Y1310437D3*
Y1260437D3*
Y1210437D3*
Y1160437D3*
Y1110437D3*
Y1060437D3*
Y1010437D3*
Y960437D3*
Y910437D3*
X3589079D3*
Y960437D3*
Y1010437D3*
Y1060437D3*
Y1110437D3*
Y1160437D3*
Y1210437D3*
Y1260437D3*
Y1310437D3*
Y1360437D3*
Y1410437D3*
Y1460437D3*
Y1510437D3*
Y1560437D3*
D18*
X3406500Y1935437D3*
X3606500D3*
Y2135437D3*
X3406500D3*
D19*
X3506500Y2035437D3*
D18*
X2781500Y1935437D3*
X2981500D3*
Y2135437D3*
X2781500D3*
D19*
X2881500Y2035437D3*
D18*
X2156500Y1935437D3*
X2356500D3*
Y2135437D3*
X2156500D3*
D19*
X2256500Y2035437D3*
D82*
X1562749Y1966686D3*
D20*
X1641490D3*
X1720230D3*
D21*
X541688Y1294000D3*
D81*
X2569000Y2035437D3*
X1944000D3*
D22*
X2981500Y1685437D3*
X3237406D3*
D81*
X3194000Y2035437D3*
X2969000Y1360437D3*
X2972937Y1206500D3*
X2969000Y1047937D3*
D25*
X556500Y2135437D3*
Y2245673D3*
X819000Y2135437D3*
Y2245673D3*
X1069000Y2135437D3*
Y2245673D3*
X556500Y1916689D3*
Y2026925D3*
X819000Y1916689D3*
Y2026925D3*
X1069000Y1916689D3*
Y2026925D3*
D26*
X831500Y660437D3*
X956500Y847937D3*
X719000D3*
D81*
X1796937Y495000D3*
X1896937D3*
D27*
X2471769Y794000D3*
X2550509D3*
X2629249D3*
X2707990D3*
X2786730D3*
X2865470D3*
X2944210D3*
X3022950D3*
D21*
X641688Y1294000D3*
X841688D3*
X941688D3*
X1041686D3*
D22*
X2504186Y1356500D3*
X2760092D3*
X2504186Y1206500D3*
X2760092D3*
X2504186Y1050249D3*
X2760092D3*
D28*
X1554188Y681500D3*
D29*
Y781500D3*
Y881500D3*
D28*
Y1331500D3*
D29*
Y1431500D3*
Y1531500D3*
D30*
X1081697Y1462751D3*
Y1541751D3*
X837946Y1462751D3*
Y1541751D3*
M02*
