G04 DipTrace 3.1.0.1*
G04 TopSilk.gbr*
%MOIN*%
G04 #@! TF.FileFunction,Legend,Top*
G04 #@! TF.Part,Single*
%ADD10C,0.009843*%
%ADD15C,0.007874*%
%ADD16C,0.01*%
%ADD74C,0.009264*%
%ADD75C,0.006176*%
%ADD76C,0.003088*%
%ADD77C,0.004632*%
%ADD78C,0.00772*%
%ADD79C,0.010807*%
%ADD80C,0.015439*%
%FSLAX26Y26*%
G04*
G70*
G90*
G75*
G01*
G04 TopSilk*
%LPD*%
X3278056Y1593686D2*
D10*
Y877188D1*
X3530023Y1593686D2*
Y877188D1*
X3278056D2*
X3530023D1*
X3278056Y1593686D2*
X3372532D1*
X3435546D2*
X3530023D1*
X3372532D2*
G03X3435546Y1593686I31507J53D01*
G01*
X3467141Y2173241D2*
X3545859D1*
X3644304Y2074796D2*
Y1996078D1*
X3545859Y1897633D2*
X3467141D1*
X3368696Y1996078D2*
Y2074796D1*
X2842141Y2173241D2*
X2920859D1*
X3019304Y2074796D2*
Y1996078D1*
X2920859Y1897633D2*
X2842141D1*
X2743696Y1996078D2*
Y2074796D1*
X2217141Y2173241D2*
X2295859D1*
X2394304Y2074796D2*
Y1996078D1*
X2295859Y1897633D2*
X2217141D1*
X2118696Y1996078D2*
Y2074796D1*
X1485978Y1903694D2*
Y2212749D1*
X1797001D1*
Y1903694D1*
X1485978D1*
X3176518Y1648035D2*
Y1722839D1*
X3042388Y1648035D2*
Y1722839D1*
Y1648035D2*
X3176518D1*
X3042388Y1722839D2*
X3176518D1*
X587965Y2178776D2*
Y2202335D1*
X525035Y2178776D2*
Y2202335D1*
X850465Y2178776D2*
Y2202335D1*
X787535Y2178776D2*
Y2202335D1*
X1100465Y2178776D2*
Y2202335D1*
X1037535Y2178776D2*
Y2202335D1*
X587965Y1960028D2*
Y1983587D1*
X525035Y1960028D2*
Y1983587D1*
X850465Y1960028D2*
Y1983587D1*
X787535Y1960028D2*
Y1983587D1*
X1100465Y1960028D2*
Y1983587D1*
X1037535Y1960028D2*
Y1983587D1*
X2699204Y1319098D2*
Y1393902D1*
X2565074Y1319098D2*
Y1393902D1*
Y1319098D2*
X2699204D1*
X2565074Y1393902D2*
X2699204D1*
Y1169098D2*
Y1243902D1*
X2565074Y1169098D2*
Y1243902D1*
Y1169098D2*
X2699204D1*
X2565074Y1243902D2*
X2699204D1*
Y1012848D2*
Y1087651D1*
X2565074Y1012848D2*
Y1087651D1*
Y1012848D2*
X2699204D1*
X2565074Y1087651D2*
X2699204D1*
X1447888Y584650D2*
X1625054D1*
Y978350D1*
X1447888D1*
Y584650D1*
X1483322D2*
Y978350D1*
X1447888Y1234650D2*
X1625054D1*
Y1628350D1*
X1447888D1*
Y1234650D1*
X1483322D2*
Y1628350D1*
X1409354Y2447543D2*
D15*
X1458961D1*
X1484157Y2422346D1*
Y2372346D1*
X1459354Y2347543D1*
X1409354D1*
X1384157Y2372740D1*
Y2422740D1*
X1408961Y2447543D1*
X1509354D2*
X1558961D1*
X1584157Y2422346D1*
Y2372346D1*
X1559354Y2347543D1*
X1509354D1*
X1484157Y2372740D1*
Y2422740D1*
X1508961Y2447543D1*
X1609354D2*
X1658961D1*
X1684157Y2422346D1*
Y2372346D1*
X1659354Y2347543D1*
X1609354D1*
X1584157Y2372740D1*
Y2422740D1*
X1608961Y2447543D1*
X1709354D2*
X1758961D1*
X1784157Y2422346D1*
Y2372346D1*
X1759354Y2347543D1*
X1709354D1*
X1684157Y2372740D1*
Y2422740D1*
X1708961Y2447543D1*
X1809354D2*
X1858961D1*
X1884157Y2422346D1*
Y2372346D1*
X1859354Y2347543D1*
X1809354D1*
X1784157Y2372740D1*
Y2422740D1*
X1808961Y2447543D1*
X2469542Y547543D2*
X2519148D1*
X2544345Y522346D1*
Y472346D1*
X2519542Y447543D1*
X2469542D1*
X2444345Y472740D1*
Y522740D1*
X2469148Y547543D1*
X2569542D2*
X2619148D1*
X2644345Y522346D1*
Y472346D1*
X2619542Y447543D1*
X2569542D1*
X2544345Y472740D1*
Y522740D1*
X2569148Y547543D1*
X2669542D2*
X2719148D1*
X2744345Y522346D1*
Y472346D1*
X2719542Y447543D1*
X2669542D1*
X2644345Y472740D1*
Y522740D1*
X2669148Y547543D1*
X2769542D2*
X2819148D1*
X2844345Y522346D1*
Y472346D1*
X2819542Y447543D1*
X2769542D1*
X2744345Y472740D1*
Y522740D1*
X2769148Y547543D1*
X2869542D2*
X2919148D1*
X2944345Y522346D1*
Y472346D1*
X2919542Y447543D1*
X2869542D1*
X2844345Y472740D1*
Y522740D1*
X2869148Y547543D1*
X2969542D2*
X3019148D1*
X3044345Y522346D1*
Y472346D1*
X3019542Y447543D1*
X2969542D1*
X2944345Y472740D1*
Y522740D1*
X2969148Y547543D1*
X3069542D2*
X3119148D1*
X3144345Y522346D1*
Y472346D1*
X3119542Y447543D1*
X3069542D1*
X3044345Y472740D1*
Y522740D1*
X3069148Y547543D1*
X3469098Y2447543D2*
X3518705D1*
X3543902Y2422346D1*
Y2372346D1*
X3519098Y2347543D1*
X3469098D1*
X3443902Y2372740D1*
Y2422740D1*
X3468705Y2447543D1*
X3569098D2*
X3618705D1*
X3643902Y2422346D1*
Y2372346D1*
X3619098Y2347543D1*
X3569098D1*
X3543902Y2372740D1*
Y2422740D1*
X3568705Y2447543D1*
X3669098D2*
X3718705D1*
X3743902Y2422346D1*
Y2372346D1*
X3719098Y2347543D1*
X3669098D1*
X3643902Y2372740D1*
Y2422740D1*
X3668705Y2447543D1*
X3769098D2*
X3818705D1*
X3843902Y2422346D1*
Y2372346D1*
X3819098Y2347543D1*
X3769098D1*
X3743902Y2372740D1*
Y2422740D1*
X3768705Y2447543D1*
X2369542Y547543D2*
X2419148D1*
X2444345Y522346D1*
Y472346D1*
X2419542Y447543D1*
X2369542D1*
X2344345Y472740D1*
Y522740D1*
X2369148Y547543D1*
X4169098Y2347543D2*
X4218705D1*
X4243902Y2322346D1*
Y2272346D1*
X4219098Y2247543D1*
X4169098D1*
X4143902Y2272740D1*
Y2322740D1*
X4168705Y2347543D1*
X4069098D2*
X4118705D1*
X4143902Y2322346D1*
Y2272346D1*
X4119098Y2247543D1*
X4069098D1*
X4043902Y2272740D1*
Y2322740D1*
X4068705Y2347543D1*
X4169098Y2247543D2*
X4218705D1*
X4243902Y2222346D1*
Y2172346D1*
X4219098Y2147543D1*
X4169098D1*
X4143902Y2172740D1*
Y2222740D1*
X4168705Y2247543D1*
X4069098D2*
X4118705D1*
X4143902Y2222346D1*
Y2172346D1*
X4119098Y2147543D1*
X4069098D1*
X4043902Y2172740D1*
Y2222740D1*
X4068705Y2247543D1*
X4169098Y2147543D2*
X4218705D1*
X4243902Y2122346D1*
Y2072346D1*
X4219098Y2047543D1*
X4169098D1*
X4143902Y2072740D1*
Y2122740D1*
X4168705Y2147543D1*
X4069098D2*
X4118705D1*
X4143902Y2122346D1*
Y2072346D1*
X4119098Y2047543D1*
X4069098D1*
X4043902Y2072740D1*
Y2122740D1*
X4068705Y2147543D1*
X4169098Y2047543D2*
X4218705D1*
X4243902Y2022346D1*
Y1972346D1*
X4219098Y1947543D1*
X4169098D1*
X4143902Y1972740D1*
Y2022740D1*
X4168705Y2047543D1*
X4069098D2*
X4118705D1*
X4143902Y2022346D1*
Y1972346D1*
X4119098Y1947543D1*
X4069098D1*
X4043902Y1972740D1*
Y2022740D1*
X4068705Y2047543D1*
X4169098Y1947543D2*
X4218705D1*
X4243902Y1922346D1*
Y1872346D1*
X4219098Y1847543D1*
X4169098D1*
X4143902Y1872740D1*
Y1922740D1*
X4168705Y1947543D1*
X4069098D2*
X4118705D1*
X4143902Y1922346D1*
Y1872346D1*
X4119098Y1847543D1*
X4069098D1*
X4043902Y1872740D1*
Y1922740D1*
X4068705Y1947543D1*
X4169098Y1847543D2*
X4218705D1*
X4243902Y1822346D1*
Y1772346D1*
X4219098Y1747543D1*
X4169098D1*
X4143902Y1772740D1*
Y1822740D1*
X4168705Y1847543D1*
X4069098D2*
X4118705D1*
X4143902Y1822346D1*
Y1772346D1*
X4119098Y1747543D1*
X4069098D1*
X4043902Y1772740D1*
Y1822740D1*
X4068705Y1847543D1*
X4169098Y1747543D2*
X4218705D1*
X4243902Y1722346D1*
Y1672346D1*
X4219098Y1647543D1*
X4169098D1*
X4143902Y1672740D1*
Y1722740D1*
X4168705Y1747543D1*
X4069098D2*
X4118705D1*
X4143902Y1722346D1*
Y1672346D1*
X4119098Y1647543D1*
X4069098D1*
X4043902Y1672740D1*
Y1722740D1*
X4068705Y1747543D1*
X4169098Y1647543D2*
X4218705D1*
X4243902Y1622346D1*
Y1572346D1*
X4219098Y1547543D1*
X4169098D1*
X4143902Y1572740D1*
Y1622740D1*
X4168705Y1647543D1*
X4069098D2*
X4118705D1*
X4143902Y1622346D1*
Y1572346D1*
X4119098Y1547543D1*
X4069098D1*
X4043902Y1572740D1*
Y1622740D1*
X4068705Y1647543D1*
X4169098Y1547543D2*
X4218705D1*
X4243902Y1522346D1*
Y1472346D1*
X4219098Y1447543D1*
X4169098D1*
X4143902Y1472740D1*
Y1522740D1*
X4168705Y1547543D1*
X4069098D2*
X4118705D1*
X4143902Y1522346D1*
Y1472346D1*
X4119098Y1447543D1*
X4069098D1*
X4043902Y1472740D1*
Y1522740D1*
X4068705Y1547543D1*
X4169098Y1447543D2*
X4218705D1*
X4243902Y1422346D1*
Y1372346D1*
X4219098Y1347543D1*
X4169098D1*
X4143902Y1372740D1*
Y1422740D1*
X4168705Y1447543D1*
X4069098D2*
X4118705D1*
X4143902Y1422346D1*
Y1372346D1*
X4119098Y1347543D1*
X4069098D1*
X4043902Y1372740D1*
Y1422740D1*
X4068705Y1447543D1*
X1769542Y547543D2*
X1819150D1*
X1844346Y522346D1*
Y472346D1*
X1819543Y447543D1*
X1769542D1*
X1744346Y472740D1*
Y522740D1*
X1769148Y547543D1*
X1869543D2*
X1919150D1*
X1944346Y522346D1*
Y472346D1*
X1919543Y447543D1*
X1869543D1*
X1844346Y472740D1*
Y522740D1*
X1869150Y547543D1*
X441686Y1356500D2*
D16*
X1247937D1*
Y1081500D1*
X441686D1*
Y1356500D1*
X979186Y1503375D2*
G02X979186Y1503375I103125J0D01*
G01*
X735437D2*
G02X735437Y1503375I103125J0D01*
G01*
X3354584Y856838D2*
D74*
Y813794D1*
X3357436Y805172D1*
X3363206Y799468D1*
X3371828Y796550D1*
X3377532D1*
X3386154Y799468D1*
X3391924Y805172D1*
X3394776Y813794D1*
Y856838D1*
X3416221Y842446D2*
Y845298D1*
X3419073Y851068D1*
X3421925Y853920D1*
X3427695Y856772D1*
X3439169D1*
X3444873Y853920D1*
X3447725Y851068D1*
X3450643Y845298D1*
Y839594D1*
X3447725Y833824D1*
X3442021Y825268D1*
X3413303Y796550D1*
X3453495D1*
X3456403Y1833219D2*
X3450633Y1838989D1*
X3444863Y1841841D1*
X3436307D1*
X3430537Y1838989D1*
X3424833Y1833219D1*
X3421915Y1824597D1*
Y1818893D1*
X3424833Y1810271D1*
X3430537Y1804567D1*
X3436307Y1801649D1*
X3444863D1*
X3450633Y1804567D1*
X3456403Y1810271D1*
X3509352Y1841841D2*
Y1801649D1*
Y1833219D2*
X3503648Y1838989D1*
X3497878Y1841841D1*
X3489322D1*
X3483552Y1838989D1*
X3477848Y1833219D1*
X3474930Y1824597D1*
Y1818893D1*
X3477848Y1810271D1*
X3483552Y1804567D1*
X3489322Y1801649D1*
X3497878D1*
X3503648Y1804567D1*
X3509352Y1810271D1*
X3527879Y1841841D2*
Y1801649D1*
Y1830367D2*
X3536501Y1838989D1*
X3542271Y1841841D1*
X3550827D1*
X3556597Y1838989D1*
X3559449Y1830367D1*
Y1801649D1*
Y1830367D2*
X3568071Y1838989D1*
X3573841Y1841841D1*
X3582397D1*
X3588167Y1838989D1*
X3591085Y1830367D1*
Y1801649D1*
X2797124Y1833219D2*
X2794272Y1838989D1*
X2785650Y1841841D1*
X2777028D1*
X2768406Y1838989D1*
X2765554Y1833219D1*
X2768406Y1827515D1*
X2774176Y1824597D1*
X2788502Y1821745D1*
X2794272Y1818893D1*
X2797124Y1813123D1*
Y1810271D1*
X2794272Y1804567D1*
X2785650Y1801649D1*
X2777028D1*
X2768406Y1804567D1*
X2765554Y1810271D1*
X2824273Y1861937D2*
Y1813123D1*
X2827125Y1804567D1*
X2832895Y1801649D1*
X2838599D1*
X2815651Y1841841D2*
X2835747D1*
X2891548D2*
Y1801649D1*
Y1833219D2*
X2885844Y1838989D1*
X2880074Y1841841D1*
X2871518D1*
X2865748Y1838989D1*
X2860044Y1833219D1*
X2857126Y1824597D1*
Y1818893D1*
X2860044Y1810271D1*
X2865748Y1804567D1*
X2871518Y1801649D1*
X2880074D1*
X2885844Y1804567D1*
X2891548Y1810271D1*
X2944497Y1838989D2*
Y1793027D1*
X2941645Y1784471D1*
X2938793Y1781553D1*
X2933023Y1778701D1*
X2924401D1*
X2918697Y1781553D1*
X2944497Y1830367D2*
X2938793Y1836071D1*
X2933023Y1838989D1*
X2924401D1*
X2918697Y1836071D1*
X2912927Y1830367D1*
X2910075Y1821745D1*
Y1815975D1*
X2912927Y1807419D1*
X2918697Y1801649D1*
X2924401Y1798797D1*
X2933023D1*
X2938793Y1801649D1*
X2944497Y1807419D1*
X2963024Y1824597D2*
X2997446D1*
Y1830367D1*
X2994594Y1836137D1*
X2991742Y1838989D1*
X2985972Y1841841D1*
X2977350D1*
X2971646Y1838989D1*
X2965876Y1833219D1*
X2963024Y1824597D1*
Y1818893D1*
X2965876Y1810271D1*
X2971646Y1804567D1*
X2977350Y1801649D1*
X2985972D1*
X2991742Y1804567D1*
X2997446Y1810271D1*
X2134109Y1861937D2*
Y1801649D1*
Y1833219D2*
X2139879Y1838989D1*
X2145583Y1841841D1*
X2154205D1*
X2159909Y1838989D1*
X2165679Y1833219D1*
X2168531Y1824597D1*
Y1818893D1*
X2165679Y1810271D1*
X2159909Y1804567D1*
X2154205Y1801649D1*
X2145583D1*
X2139879Y1804567D1*
X2134109Y1810271D1*
X2187058Y1841841D2*
Y1801649D1*
Y1824597D2*
X2189976Y1833219D1*
X2195680Y1838989D1*
X2201450Y1841841D1*
X2210072D1*
X2228600Y1861937D2*
X2231451Y1859085D1*
X2234370Y1861937D1*
X2231451Y1864855D1*
X2228600Y1861937D1*
X2231451Y1841841D2*
Y1801649D1*
X2287319Y1838989D2*
Y1793027D1*
X2284467Y1784471D1*
X2281615Y1781553D1*
X2275845Y1778701D1*
X2267223D1*
X2261519Y1781553D1*
X2287319Y1830367D2*
X2281615Y1836071D1*
X2275845Y1838989D1*
X2267223D1*
X2261519Y1836071D1*
X2255749Y1830367D1*
X2252897Y1821745D1*
Y1815975D1*
X2255749Y1807419D1*
X2261519Y1801649D1*
X2267223Y1798797D1*
X2275845D1*
X2281615Y1801649D1*
X2287319Y1807419D1*
X2305846Y1861937D2*
Y1801649D1*
Y1830367D2*
X2314468Y1838989D1*
X2320238Y1841841D1*
X2328860D1*
X2334564Y1838989D1*
X2337416Y1830367D1*
Y1801649D1*
X2364565Y1861937D2*
Y1813123D1*
X2367417Y1804567D1*
X2373187Y1801649D1*
X2378891D1*
X2355943Y1841841D2*
X2376039D1*
X1626489Y1883344D2*
Y1837448D1*
X1623637Y1828826D1*
X1620719Y1825974D1*
X1615015Y1823056D1*
X1609245D1*
X1603541Y1825974D1*
X1600689Y1828826D1*
X1597771Y1837448D1*
Y1843152D1*
X1656490Y1823056D2*
X1685208Y1883277D1*
X1645016D1*
X461917Y1922352D2*
Y1948151D1*
X458999Y1956773D1*
X456147Y1959692D1*
X450443Y1962544D1*
X444673D1*
X438969Y1959692D1*
X436051Y1956774D1*
X433199Y1948151D1*
Y1922352D1*
X493487D1*
X461917Y1942448D2*
X493487Y1962544D1*
X433266Y2015493D2*
Y1986841D1*
X459065Y1983989D1*
X456214Y1986841D1*
X453295Y1995463D1*
Y2004019D1*
X456214Y2012641D1*
X461917Y2018411D1*
X470539Y2021263D1*
X476243D1*
X484865Y2018411D1*
X490635Y2012641D1*
X493487Y2004019D1*
Y1995463D1*
X490635Y1986841D1*
X487717Y1983989D1*
X482013Y1981071D1*
X724417Y1923811D2*
Y1949611D1*
X721499Y1958233D1*
X718647Y1961151D1*
X712943Y1964003D1*
X707173D1*
X701469Y1961151D1*
X698551Y1958233D1*
X695699Y1949611D1*
Y1923811D1*
X755987D1*
X724417Y1943907D2*
X755987Y1964003D1*
X704321Y2016952D2*
X698618Y2014100D1*
X695766Y2005478D1*
Y1999774D1*
X698618Y1991152D1*
X707240Y1985382D1*
X721565Y1982530D1*
X735891D1*
X747365Y1985382D1*
X753135Y1991152D1*
X755987Y1999774D1*
Y2002626D1*
X753135Y2011181D1*
X747365Y2016952D1*
X738743Y2019804D1*
X735891D1*
X727269Y2016952D1*
X721565Y2011182D1*
X718714Y2002626D1*
Y1999774D1*
X721565Y1991152D1*
X727269Y1985382D1*
X735891Y1982530D1*
X974417Y1922352D2*
Y1948151D1*
X971499Y1956773D1*
X968647Y1959692D1*
X962943Y1962544D1*
X957173D1*
X951469Y1959692D1*
X948551Y1956774D1*
X945699Y1948151D1*
Y1922352D1*
X1005987D1*
X974417Y1942448D2*
X1005987Y1962544D1*
Y1992545D2*
X945766Y2021263D1*
Y1981071D1*
X1499915Y1066218D2*
Y1023174D1*
X1502767Y1014552D1*
X1508538Y1008848D1*
X1517160Y1005930D1*
X1522863D1*
X1531485Y1008848D1*
X1537256Y1014552D1*
X1540107Y1023174D1*
Y1066218D1*
X1558635Y1054678D2*
X1564405Y1057596D1*
X1573027Y1066152D1*
Y1005930D1*
X1487016Y1716218D2*
Y1673174D1*
X1489867Y1664552D1*
X1495638Y1658848D1*
X1504260Y1655930D1*
X1509963D1*
X1518586Y1658848D1*
X1524356Y1664552D1*
X1527208Y1673174D1*
Y1716218D1*
X1551505Y1716152D2*
X1583008D1*
X1565831Y1693204D1*
X1574453D1*
X1580157Y1690352D1*
X1583008Y1687500D1*
X1585927Y1678878D1*
Y1673174D1*
X1583008Y1664552D1*
X1577305Y1658782D1*
X1568683Y1655930D1*
X1560061D1*
X1551505Y1658782D1*
X1548653Y1661700D1*
X1545735Y1667404D1*
X1521700Y2273621D2*
D75*
X1519755Y2277468D1*
X1514051Y2283216D1*
X1554199D1*
X1514051Y2299414D2*
Y2320416D1*
X1529349Y2308964D1*
Y2314712D1*
X1531251Y2318515D1*
X1533152Y2320416D1*
X1538900Y2322362D1*
X1542703D1*
X1548451Y2320416D1*
X1552297Y2316614D1*
X1554199Y2310865D1*
Y2305117D1*
X1552297Y2299414D1*
X1550352Y2297512D1*
X1546549Y2295567D1*
X1624062Y2277558D2*
X1622117Y2281405D1*
X1616413Y2287153D1*
X1656561D1*
X1625964Y2301449D2*
X1624062D1*
X1620216Y2303351D1*
X1618314Y2305252D1*
X1616413Y2309099D1*
Y2316748D1*
X1618314Y2320551D1*
X1620216Y2322452D1*
X1624062Y2324397D1*
X1627865D1*
X1631712Y2322452D1*
X1637415Y2318649D1*
X1656561Y2299504D1*
Y2326299D1*
X1724062Y2281495D2*
X1722117Y2285342D1*
X1716413Y2291090D1*
X1756561D1*
X1724062Y2303441D2*
X1722117Y2307288D1*
X1716413Y2313036D1*
X1756561D1*
X1824062Y2269684D2*
X1822117Y2273531D1*
X1816413Y2279279D1*
X1856561D1*
X1816413Y2303126D2*
X1818314Y2297378D1*
X1824062Y2293531D1*
X1833613Y2291630D1*
X1839361D1*
X1848912Y2293531D1*
X1854660Y2297378D1*
X1856561Y2303126D1*
Y2306928D1*
X1854660Y2312676D1*
X1848912Y2316479D1*
X1839361Y2318425D1*
X1833613D1*
X1824062Y2316479D1*
X1818314Y2312677D1*
X1816413Y2306929D1*
Y2303126D1*
X1824062Y2316479D2*
X1848912Y2293531D1*
X1425132Y2239325D2*
X1421329Y2237423D1*
X1417483Y2233577D1*
X1415581Y2229774D1*
Y2222125D1*
X1417483Y2218278D1*
X1421329Y2214475D1*
X1425132Y2212530D1*
X1430880Y2210629D1*
X1440475D1*
X1446179Y2212530D1*
X1450025Y2214475D1*
X1453828Y2218278D1*
X1455773Y2222125D1*
Y2229774D1*
X1453828Y2233576D1*
X1450025Y2237423D1*
X1446179Y2239325D1*
X1440475D1*
Y2229774D1*
X1415581Y2278471D2*
X1455773D1*
X1415581Y2251676D1*
X1455773D1*
X1415581Y2290822D2*
X1455773D1*
Y2304219D1*
X1453828Y2309967D1*
X1450025Y2313814D1*
X1446179Y2315715D1*
X1440475Y2317617D1*
X1430880D1*
X1425132Y2315715D1*
X1421329Y2313814D1*
X1417483Y2309967D1*
X1415581Y2304219D1*
Y2290822D1*
X3682657Y2263755D2*
X3680755D1*
X3676908Y2265657D1*
X3675007Y2267558D1*
X3673106Y2271405D1*
Y2279054D1*
X3675007Y2282856D1*
X3676909Y2284758D1*
X3680755Y2286703D1*
X3684558D1*
X3688405Y2284758D1*
X3694108Y2280955D1*
X3713254Y2261810D1*
Y2288604D1*
X3673106Y2312452D2*
X3675007Y2306704D1*
X3680755Y2302857D1*
X3690306Y2300956D1*
X3696054D1*
X3705604Y2302857D1*
X3711352Y2306704D1*
X3713254Y2312452D1*
Y2316254D1*
X3711352Y2322002D1*
X3705604Y2325805D1*
X3696054Y2327750D1*
X3690306D1*
X3680755Y2325805D1*
X3675007Y2322002D1*
X3673106Y2316254D1*
Y2312452D1*
X3680755Y2325805D2*
X3705604Y2302857D1*
X3782657Y2271629D2*
X3780755D1*
X3776908Y2273531D1*
X3775007Y2275432D1*
X3773106Y2279279D1*
Y2286928D1*
X3775007Y2290730D1*
X3776909Y2292632D1*
X3780755Y2294577D1*
X3784558D1*
X3788405Y2292632D1*
X3794108Y2288829D1*
X3813254Y2269684D1*
Y2296478D1*
X3780755Y2308830D2*
X3778810Y2312677D1*
X3773106Y2318425D1*
X3813254D1*
X2372319Y592203D2*
X2374220Y586455D1*
X2379968Y582609D1*
X2389518Y580707D1*
X2395266D1*
X2404817Y582609D1*
X2410565Y586455D1*
X2412466Y592203D1*
Y596006D1*
X2410565Y601754D1*
X2404817Y605557D1*
X2395266Y607502D1*
X2389518D1*
X2379968Y605557D1*
X2374220Y601754D1*
X2372319Y596006D1*
Y592203D1*
X2379968Y605557D2*
X2404817Y582609D1*
X2482330Y584644D2*
X2480385Y588491D1*
X2474681Y594239D1*
X2514829D1*
X2584231Y578716D2*
X2582330D1*
X2578483Y580617D1*
X2576582Y582518D1*
X2574681Y586365D1*
Y594014D1*
X2576582Y597817D1*
X2578483Y599718D1*
X2582330Y601664D1*
X2586133D1*
X2589979Y599718D1*
X2595683Y595916D1*
X2614829Y576770D1*
Y603565D1*
X2674681Y580617D2*
Y601620D1*
X2689979Y590168D1*
Y595916D1*
X2691881Y599718D1*
X2693782Y601620D1*
X2699530Y603565D1*
X2703333D1*
X2709081Y601620D1*
X2712927Y597817D1*
X2714829Y592069D1*
Y586321D1*
X2712927Y580617D1*
X2710982Y578716D1*
X2707179Y576770D1*
X2814829Y595916D2*
X2774681D1*
X2801431Y576770D1*
Y605466D1*
X2874681Y599718D2*
Y580617D1*
X2891881Y578716D1*
X2889979Y580617D1*
X2888034Y586365D1*
Y592069D1*
X2889979Y597817D1*
X2893782Y601664D1*
X2899530Y603565D1*
X2903333D1*
X2909081Y601664D1*
X2912927Y597817D1*
X2914829Y592069D1*
Y586365D1*
X2912927Y580617D1*
X2910982Y578716D1*
X2907179Y576770D1*
X2980385Y599718D2*
X2976582Y597817D1*
X2974681Y592069D1*
Y588266D1*
X2976582Y582518D1*
X2982330Y578672D1*
X2991881Y576770D1*
X3001431D1*
X3009080Y578672D1*
X3012927Y582518D1*
X3014829Y588266D1*
Y590168D1*
X3012927Y595871D1*
X3009081Y599718D1*
X3003333Y601620D1*
X3001431D1*
X2995683Y599718D1*
X2991881Y595872D1*
X2989979Y590168D1*
Y588266D1*
X2991881Y582518D1*
X2995683Y578672D1*
X3001431Y576770D1*
X3114829Y584420D2*
X3074681Y603565D1*
Y576770D1*
X4271168Y1817242D2*
X4292171D1*
X4280719Y1801943D1*
X4286467D1*
X4290269Y1800042D1*
X4292171Y1798141D1*
X4294116Y1792393D1*
Y1788590D1*
X4292171Y1782842D1*
X4288368Y1778995D1*
X4282620Y1777094D1*
X4276872D1*
X4271168Y1778995D1*
X4269267Y1780941D1*
X4267321Y1784743D1*
X4310314Y1817242D2*
X4331317D1*
X4319865Y1801943D1*
X4325613D1*
X4329415Y1800042D1*
X4331317Y1798141D1*
X4333262Y1792393D1*
Y1788590D1*
X4331317Y1782842D1*
X4327514Y1778995D1*
X4321766Y1777094D1*
X4316018D1*
X4310314Y1778995D1*
X4308413Y1780941D1*
X4306468Y1784743D1*
X4271168Y1714880D2*
X4292171D1*
X4280719Y1699581D1*
X4286467D1*
X4290269Y1697680D1*
X4292171Y1695778D1*
X4294116Y1690030D1*
Y1686228D1*
X4292171Y1680480D1*
X4288368Y1676633D1*
X4282620Y1674732D1*
X4276872D1*
X4271168Y1676633D1*
X4269267Y1678579D1*
X4267321Y1682381D1*
X4329415Y1714880D2*
X4310314D1*
X4308413Y1697680D1*
X4310314Y1699581D1*
X4316062Y1701527D1*
X4321766D1*
X4327514Y1699581D1*
X4331361Y1695778D1*
X4333262Y1690030D1*
Y1686228D1*
X4331361Y1680480D1*
X4327514Y1676633D1*
X4321766Y1674732D1*
X4316062D1*
X4310314Y1676633D1*
X4308413Y1678579D1*
X4306468Y1682381D1*
X4271168Y1616454D2*
X4292171D1*
X4280719Y1601156D1*
X4286467D1*
X4290269Y1599255D1*
X4292171Y1597353D1*
X4294116Y1591605D1*
Y1587803D1*
X4292171Y1582055D1*
X4288368Y1578208D1*
X4282620Y1576307D1*
X4276872D1*
X4271168Y1578208D1*
X4269267Y1580153D1*
X4267321Y1583956D1*
X4314117Y1576307D2*
X4333262Y1616454D1*
X4306468D1*
X4271168Y1518029D2*
X4292171D1*
X4280719Y1502731D1*
X4286467D1*
X4290269Y1500829D1*
X4292171Y1498928D1*
X4294116Y1493180D1*
Y1489378D1*
X4292171Y1483629D1*
X4288368Y1479783D1*
X4282620Y1477881D1*
X4276872D1*
X4271168Y1479783D1*
X4269267Y1481728D1*
X4267321Y1485531D1*
X4331361Y1504676D2*
X4329415Y1498928D1*
X4325613Y1495081D1*
X4319865Y1493180D1*
X4317964D1*
X4312216Y1495081D1*
X4308413Y1498928D1*
X4306468Y1504676D1*
Y1506577D1*
X4308413Y1512325D1*
X4312216Y1516128D1*
X4317964Y1518029D1*
X4319865D1*
X4325613Y1516128D1*
X4329415Y1512325D1*
X4331361Y1504676D1*
Y1495081D1*
X4329415Y1485531D1*
X4325613Y1479783D1*
X4319865Y1477881D1*
X4316062D1*
X4310314Y1479783D1*
X4308413Y1483629D1*
X4286467Y1379456D2*
Y1419604D1*
X4267321Y1392854D1*
X4296017D1*
X4308369Y1411955D2*
X4312216Y1413900D1*
X4317964Y1419604D1*
Y1379456D1*
X3960145Y1817242D2*
X3981147D1*
X3969695Y1801943D1*
X3975443D1*
X3979246Y1800042D1*
X3981147Y1798141D1*
X3983092Y1792393D1*
Y1788590D1*
X3981147Y1782842D1*
X3977344Y1778995D1*
X3971596Y1777094D1*
X3965848D1*
X3960145Y1778995D1*
X3958243Y1780941D1*
X3956298Y1784743D1*
X3997389Y1807691D2*
Y1809593D1*
X3999291Y1813439D1*
X4001192Y1815341D1*
X4005039Y1817242D1*
X4012688D1*
X4016491Y1815341D1*
X4018392Y1813439D1*
X4020337Y1809593D1*
Y1805790D1*
X4018392Y1801943D1*
X4014589Y1796239D1*
X3995444Y1777094D1*
X4022239D1*
X3960145Y1714880D2*
X3981147D1*
X3969695Y1699581D1*
X3975443D1*
X3979246Y1697680D1*
X3981147Y1695778D1*
X3983092Y1690030D1*
Y1686228D1*
X3981147Y1680480D1*
X3977344Y1676633D1*
X3971596Y1674732D1*
X3965848D1*
X3960145Y1676633D1*
X3958243Y1678579D1*
X3956298Y1682381D1*
X4014589Y1674732D2*
Y1714880D1*
X3995444Y1688129D1*
X4024140D1*
X3960145Y1616454D2*
X3981147D1*
X3969695Y1601156D1*
X3975443D1*
X3979246Y1599255D1*
X3981147Y1597353D1*
X3983092Y1591605D1*
Y1587803D1*
X3981147Y1582055D1*
X3977344Y1578208D1*
X3971596Y1576307D1*
X3965848D1*
X3960145Y1578208D1*
X3958243Y1580153D1*
X3956298Y1583956D1*
X4018392Y1610751D2*
X4016491Y1614553D1*
X4010742Y1616454D1*
X4006940D1*
X4001192Y1614553D1*
X3997345Y1608805D1*
X3995444Y1599255D1*
Y1589704D1*
X3997345Y1582055D1*
X4001192Y1578208D1*
X4006940Y1576307D1*
X4008841D1*
X4014545Y1578208D1*
X4018392Y1582055D1*
X4020293Y1587803D1*
Y1589704D1*
X4018392Y1595452D1*
X4014545Y1599255D1*
X4008841Y1601156D1*
X4006940D1*
X4001192Y1599255D1*
X3997345Y1595452D1*
X3995444Y1589704D1*
X3960145Y1518029D2*
X3981147D1*
X3969695Y1502731D1*
X3975443D1*
X3979246Y1500829D1*
X3981147Y1498928D1*
X3983092Y1493180D1*
Y1489378D1*
X3981147Y1483629D1*
X3977344Y1479783D1*
X3971596Y1477881D1*
X3965848D1*
X3960145Y1479783D1*
X3958243Y1481728D1*
X3956298Y1485531D1*
X4004994Y1518029D2*
X3999291Y1516128D1*
X3997345Y1512325D1*
Y1508479D1*
X3999291Y1504676D1*
X4003093Y1502731D1*
X4010742Y1500829D1*
X4016491Y1498928D1*
X4020293Y1495081D1*
X4022194Y1491279D1*
Y1485531D1*
X4020293Y1481728D1*
X4018392Y1479783D1*
X4012644Y1477881D1*
X4004994D1*
X3999291Y1479783D1*
X3997345Y1481728D1*
X3995444Y1485531D1*
Y1491279D1*
X3997345Y1495081D1*
X4001192Y1498928D1*
X4006896Y1500829D1*
X4014545Y1502731D1*
X4018392Y1504676D1*
X4020293Y1508479D1*
Y1512325D1*
X4018392Y1516128D1*
X4012644Y1518029D1*
X4004994D1*
X3975443Y1379456D2*
Y1419604D1*
X3956298Y1392854D1*
X3984994D1*
X4008841Y1419604D2*
X4003093Y1417703D1*
X3999246Y1411955D1*
X3997345Y1402404D1*
Y1396656D1*
X3999246Y1387106D1*
X4003093Y1381358D1*
X4008841Y1379456D1*
X4012644D1*
X4018392Y1381358D1*
X4022194Y1387106D1*
X4024140Y1396656D1*
Y1402404D1*
X4022194Y1411955D1*
X4018392Y1417703D1*
X4012644Y1419604D1*
X4008841D1*
X4022194Y1411955D2*
X3999246Y1387106D1*
X3960145Y1919604D2*
X3981147D1*
X3969695Y1904305D1*
X3975443D1*
X3979246Y1902404D1*
X3981147Y1900503D1*
X3983092Y1894755D1*
Y1890952D1*
X3981147Y1885204D1*
X3977344Y1881358D1*
X3971596Y1879456D1*
X3965848D1*
X3960145Y1881358D1*
X3958243Y1883303D1*
X3956298Y1887106D1*
X4006940Y1919604D2*
X4001192Y1917703D1*
X3997345Y1911955D1*
X3995444Y1902404D1*
Y1896656D1*
X3997345Y1887106D1*
X4001192Y1881358D1*
X4006940Y1879456D1*
X4010742D1*
X4016491Y1881358D1*
X4020293Y1887106D1*
X4022239Y1896656D1*
Y1902404D1*
X4020293Y1911955D1*
X4016491Y1917703D1*
X4010742Y1919604D1*
X4006940D1*
X4020293Y1911955D2*
X3997345Y1887106D1*
X3958243Y2213203D2*
Y2215104D1*
X3960145Y2218951D1*
X3962046Y2220852D1*
X3965893Y2222754D1*
X3973542D1*
X3977344Y2220852D1*
X3979246Y2218951D1*
X3981191Y2215104D1*
Y2211302D1*
X3979246Y2207455D1*
X3975443Y2201751D1*
X3956298Y2182606D1*
X3983092D1*
X4014589D2*
Y2222754D1*
X3995444Y2196003D1*
X4024140D1*
X3958243Y2110841D2*
Y2112742D1*
X3960145Y2116589D1*
X3962046Y2118490D1*
X3965893Y2120391D1*
X3973542D1*
X3977344Y2118490D1*
X3979246Y2116589D1*
X3981191Y2112742D1*
Y2108940D1*
X3979246Y2105093D1*
X3975443Y2099389D1*
X3956298Y2080244D1*
X3983092D1*
X4018392Y2114688D2*
X4016491Y2118490D1*
X4010742Y2120391D1*
X4006940D1*
X4001192Y2118490D1*
X3997345Y2112742D1*
X3995444Y2103192D1*
Y2093641D1*
X3997345Y2085992D1*
X4001192Y2082145D1*
X4006940Y2080244D1*
X4008841D1*
X4014545Y2082145D1*
X4018392Y2085992D1*
X4020293Y2091740D1*
Y2093641D1*
X4018392Y2099389D1*
X4014545Y2103192D1*
X4008841Y2105093D1*
X4006940D1*
X4001192Y2103192D1*
X3997345Y2099389D1*
X3995444Y2093641D1*
X3958243Y2012416D2*
Y2014317D1*
X3960145Y2018164D1*
X3962046Y2020065D1*
X3965893Y2021966D1*
X3973542D1*
X3977344Y2020065D1*
X3979246Y2018164D1*
X3981191Y2014317D1*
Y2010514D1*
X3979246Y2006668D1*
X3975443Y2000964D1*
X3956298Y1981818D1*
X3983092D1*
X4004994Y2021966D2*
X3999291Y2020065D1*
X3997345Y2016262D1*
Y2012416D1*
X3999291Y2008613D1*
X4003093Y2006668D1*
X4010742Y2004766D1*
X4016491Y2002865D1*
X4020293Y1999018D1*
X4022194Y1995216D1*
Y1989468D1*
X4020293Y1985665D1*
X4018392Y1983720D1*
X4012644Y1981818D1*
X4004994D1*
X3999291Y1983720D1*
X3997345Y1985665D1*
X3995444Y1989468D1*
Y1995216D1*
X3997345Y1999018D1*
X4001192Y2002865D1*
X4006896Y2004766D1*
X4014545Y2006668D1*
X4018392Y2008613D1*
X4020293Y2012416D1*
Y2016262D1*
X4018392Y2020065D1*
X4012644Y2021966D1*
X4004994D1*
X3958243Y2315565D2*
Y2317467D1*
X3960145Y2321313D1*
X3962046Y2323215D1*
X3965893Y2325116D1*
X3973542D1*
X3977344Y2323215D1*
X3979246Y2321313D1*
X3981191Y2317467D1*
Y2313664D1*
X3979246Y2309817D1*
X3975443Y2304113D1*
X3956298Y2284968D1*
X3983092D1*
X3997389Y2315565D2*
Y2317467D1*
X3999291Y2321313D1*
X4001192Y2323215D1*
X4005039Y2325116D1*
X4012688D1*
X4016491Y2323215D1*
X4018392Y2321313D1*
X4020337Y2317467D1*
Y2313664D1*
X4018392Y2309817D1*
X4014589Y2304113D1*
X3995444Y2284968D1*
X4022239D1*
X4271168Y1919604D2*
X4292171D1*
X4280719Y1904305D1*
X4286467D1*
X4290269Y1902404D1*
X4292171Y1900503D1*
X4294116Y1894755D1*
Y1890952D1*
X4292171Y1885204D1*
X4288368Y1881358D1*
X4282620Y1879456D1*
X4276872D1*
X4271168Y1881358D1*
X4269267Y1883303D1*
X4267321Y1887106D1*
X4306468Y1911955D2*
X4310314Y1913900D1*
X4316062Y1919604D1*
Y1879456D1*
X732645Y503616D2*
Y505518D1*
X734546Y509365D1*
X736447Y511266D1*
X740294Y513167D1*
X747943D1*
X751746Y511266D1*
X753647Y509365D1*
X755593Y505518D1*
Y501715D1*
X753647Y497868D1*
X749845Y492165D1*
X730699Y473019D1*
X757494D1*
X769845Y505518D2*
X773692Y507463D1*
X779440Y513167D1*
Y473019D1*
X793693Y476866D2*
X791792Y474921D1*
X793693Y473019D1*
X795638Y474921D1*
X793693Y476866D1*
X830938Y507463D2*
X829036Y511266D1*
X823288Y513167D1*
X819486D1*
X813738Y511266D1*
X809891Y505518D1*
X807990Y495967D1*
Y486417D1*
X809891Y478767D1*
X813738Y474921D1*
X819486Y473019D1*
X821387D1*
X827091Y474921D1*
X830938Y478767D1*
X832839Y484515D1*
Y486417D1*
X830938Y492165D1*
X827091Y495967D1*
X821387Y497868D1*
X819486D1*
X813738Y495967D1*
X809891Y492165D1*
X807990Y486417D1*
X845190Y513211D2*
X860489Y473019D1*
X875788Y513211D1*
X927020Y493093D2*
X949128D1*
X1002305Y503616D2*
Y505518D1*
X1004207Y509365D1*
X1006108Y511266D1*
X1009955Y513167D1*
X1017604D1*
X1021406Y511266D1*
X1023308Y509365D1*
X1025253Y505518D1*
Y501715D1*
X1023308Y497868D1*
X1019505Y492165D1*
X1000360Y473019D1*
X1027154D1*
X1062454Y507463D2*
X1060552Y511266D1*
X1054804Y513167D1*
X1051002D1*
X1045254Y511266D1*
X1041407Y505518D1*
X1039506Y495967D1*
Y486417D1*
X1041407Y478767D1*
X1045254Y474921D1*
X1051002Y473019D1*
X1052903D1*
X1058607Y474921D1*
X1062454Y478767D1*
X1064355Y484515D1*
Y486417D1*
X1062454Y492165D1*
X1058607Y495967D1*
X1052903Y497868D1*
X1051002D1*
X1045254Y495967D1*
X1041407Y492165D1*
X1039506Y486417D1*
X1078608Y476866D2*
X1076706Y474921D1*
X1078608Y473019D1*
X1080553Y474921D1*
X1078608Y476866D1*
X1112050Y473019D2*
Y513167D1*
X1092905Y486417D1*
X1121601D1*
X1133952Y513211D2*
X1149251Y473019D1*
X1164549Y513211D1*
X3481501Y1567697D2*
D76*
Y1547601D1*
X3488199D1*
X3491073Y1548574D1*
X3492997Y1550475D1*
X3493947Y1552398D1*
X3494898Y1555250D1*
Y1560048D1*
X3493947Y1562922D1*
X3492997Y1564823D1*
X3491073Y1566746D1*
X3488199Y1567697D1*
X3481501D1*
X3506822Y1567675D2*
X3503948Y1566724D1*
X3502024Y1563850D1*
X3501074Y1559075D1*
Y1556201D1*
X3502024Y1551425D1*
X3503948Y1548551D1*
X3506822Y1547601D1*
X3508723D1*
X3511597Y1548551D1*
X3513498Y1551425D1*
X3514471Y1556201D1*
Y1559075D1*
X3513498Y1563850D1*
X3511597Y1566724D1*
X3508723Y1567675D1*
X3506822D1*
X3513498Y1563850D2*
X3502024Y1551425D1*
X3469001Y917697D2*
Y897601D1*
X3475699D1*
X3478573Y898574D1*
X3480497Y900475D1*
X3481447Y902398D1*
X3482398Y905250D1*
Y910048D1*
X3481447Y912922D1*
X3480497Y914823D1*
X3478573Y916746D1*
X3475699Y917697D1*
X3469001D1*
X3488574Y913850D2*
X3490497Y914823D1*
X3493371Y917675D1*
Y897601D1*
X3501470Y917675D2*
X3511971D1*
X3506245Y910025D1*
X3509119D1*
X3511021Y909075D1*
X3511971Y908124D1*
X3512944Y905250D1*
Y903349D1*
X3511971Y900475D1*
X3510070Y898551D1*
X3507196Y897601D1*
X3504322D1*
X3501470Y898551D1*
X3500519Y899524D1*
X3499547Y901425D1*
X3294001Y967697D2*
Y947601D1*
X3300699D1*
X3303573Y948574D1*
X3305497Y950475D1*
X3306447Y952398D1*
X3307398Y955250D1*
Y960048D1*
X3306447Y962922D1*
X3305497Y964823D1*
X3303573Y966746D1*
X3300699Y967697D1*
X3294001D1*
X3313574Y963850D2*
X3315497Y964823D1*
X3318371Y967675D1*
Y947601D1*
X3336021Y967675D2*
X3326470D1*
X3325519Y959075D1*
X3326470Y960025D1*
X3329344Y960998D1*
X3332196D1*
X3335070Y960025D1*
X3336993Y958124D1*
X3337944Y955250D1*
Y953349D1*
X3336993Y950475D1*
X3335070Y948551D1*
X3332196Y947601D1*
X3329344D1*
X3326470Y948551D1*
X3325519Y949524D1*
X3324547Y951425D1*
X3307398Y1017697D2*
Y997601D1*
X3294001Y1017697D1*
Y997601D1*
X3328894D2*
X3321223Y1017697D1*
X3313574Y997601D1*
X3316448Y1004300D2*
X3326020D1*
X3340818Y1017675D2*
X3337944Y1016724D1*
X3336021Y1013850D1*
X3335070Y1009075D1*
Y1006201D1*
X3336021Y1001425D1*
X3337944Y998551D1*
X3340818Y997601D1*
X3342719D1*
X3345593Y998551D1*
X3347495Y1001425D1*
X3348467Y1006201D1*
Y1009075D1*
X3347495Y1013850D1*
X3345593Y1016724D1*
X3342719Y1017675D1*
X3340818D1*
X3347495Y1013850D2*
X3336021Y1001425D1*
X3307398Y1067697D2*
Y1047601D1*
X3294001Y1067697D1*
Y1047601D1*
X3328894D2*
X3321223Y1067697D1*
X3313574Y1047601D1*
X3316448Y1054300D2*
X3326020D1*
X3335070Y1063850D2*
X3336993Y1064823D1*
X3339867Y1067675D1*
Y1047601D1*
X3307398Y1117697D2*
Y1097601D1*
X3294001Y1117697D1*
Y1097601D1*
X3313574Y1117697D2*
X3318371Y1097601D1*
X3323146Y1117697D1*
X3327922Y1097601D1*
X3332719Y1117697D1*
X3338895Y1108124D2*
X3347495D1*
X3350369Y1109097D1*
X3351341Y1110048D1*
X3352292Y1111949D1*
Y1113872D1*
X3351341Y1115773D1*
X3350369Y1116746D1*
X3347495Y1117697D1*
X3338895D1*
Y1097601D1*
X3345593Y1108124D2*
X3352292Y1097601D1*
X3307398Y1167697D2*
Y1147601D1*
X3294001Y1167697D1*
Y1147601D1*
X3327922Y1162922D2*
X3326971Y1164823D1*
X3325048Y1166746D1*
X3323146Y1167697D1*
X3319322D1*
X3317398Y1166746D1*
X3315497Y1164823D1*
X3314524Y1162922D1*
X3313574Y1160048D1*
Y1155250D1*
X3314524Y1152398D1*
X3315497Y1150475D1*
X3317398Y1148574D1*
X3319322Y1147601D1*
X3323146D1*
X3325048Y1148574D1*
X3326971Y1150475D1*
X3327922Y1152398D1*
X3334097Y1167697D2*
Y1147601D1*
X3345571D1*
X3351747Y1158124D2*
X3360347D1*
X3363221Y1159097D1*
X3364194Y1160048D1*
X3365144Y1161949D1*
Y1163872D1*
X3364194Y1165773D1*
X3363221Y1166746D1*
X3360347Y1167697D1*
X3351747D1*
Y1147601D1*
X3358446Y1158124D2*
X3365144Y1147601D1*
X3294001Y1207638D2*
X3305055D1*
X3311230Y1217697D2*
X3318880Y1197601D1*
X3326529Y1217697D1*
X3347052Y1212922D2*
X3346102Y1214823D1*
X3344178Y1216746D1*
X3342277Y1217697D1*
X3338453D1*
X3336529Y1216746D1*
X3334628Y1214823D1*
X3333655Y1212922D1*
X3332705Y1210048D1*
Y1205250D1*
X3333655Y1202398D1*
X3334628Y1200475D1*
X3336529Y1198574D1*
X3338453Y1197601D1*
X3342277D1*
X3344178Y1198574D1*
X3346102Y1200475D1*
X3347052Y1202398D1*
X3367576Y1212922D2*
X3366626Y1214823D1*
X3364702Y1216746D1*
X3362801Y1217697D1*
X3358976D1*
X3357053Y1216746D1*
X3355152Y1214823D1*
X3354179Y1212922D1*
X3353228Y1210048D1*
Y1205250D1*
X3354179Y1202398D1*
X3355152Y1200475D1*
X3357053Y1198574D1*
X3358976Y1197601D1*
X3362801D1*
X3364702Y1198574D1*
X3366626Y1200475D1*
X3367576Y1202398D1*
X3296351Y1266249D2*
Y1249027D1*
X3287751Y1257627D2*
X3304973D1*
X3311149Y1267697D2*
X3318798Y1247601D1*
X3326448Y1267697D1*
X3346971Y1262922D2*
X3346021Y1264823D1*
X3344097Y1266746D1*
X3342196Y1267697D1*
X3338371D1*
X3336448Y1266746D1*
X3334547Y1264823D1*
X3333574Y1262922D1*
X3332623Y1260048D1*
Y1255250D1*
X3333574Y1252398D1*
X3334547Y1250475D1*
X3336448Y1248574D1*
X3338371Y1247601D1*
X3342196D1*
X3344097Y1248574D1*
X3346021Y1250475D1*
X3346971Y1252398D1*
X3367495Y1262922D2*
X3366544Y1264823D1*
X3364621Y1266746D1*
X3362720Y1267697D1*
X3358895D1*
X3356972Y1266746D1*
X3355070Y1264823D1*
X3354098Y1262922D1*
X3353147Y1260048D1*
Y1255250D1*
X3354098Y1252398D1*
X3355070Y1250475D1*
X3356972Y1248574D1*
X3358895Y1247601D1*
X3362720D1*
X3364621Y1248574D1*
X3366544Y1250475D1*
X3367495Y1252398D1*
X3294001Y1467697D2*
X3301650Y1447601D1*
X3309299Y1467697D1*
X3320250Y1460998D2*
X3318349Y1460048D1*
X3316426Y1458124D1*
X3315475Y1455250D1*
Y1453349D1*
X3316426Y1450475D1*
X3318349Y1448574D1*
X3320250Y1447601D1*
X3323124D1*
X3325048Y1448574D1*
X3326949Y1450475D1*
X3327922Y1453349D1*
Y1455250D1*
X3326949Y1458124D1*
X3325048Y1460048D1*
X3323124Y1460998D1*
X3320250D1*
X3334097D2*
Y1451425D1*
X3335048Y1448574D1*
X3336971Y1447601D1*
X3339845D1*
X3341747Y1448574D1*
X3344621Y1451425D1*
Y1460998D2*
Y1447601D1*
X3353670Y1467697D2*
Y1451425D1*
X3354621Y1448574D1*
X3356544Y1447601D1*
X3358446D1*
X3350796Y1460998D2*
X3357495D1*
X3309321Y1497601D2*
X3301650Y1517697D1*
X3294001Y1497601D1*
X3296875Y1504300D2*
X3306447D1*
X3329845Y1512922D2*
X3328894Y1514823D1*
X3326971Y1516746D1*
X3325070Y1517697D1*
X3321245D1*
X3319322Y1516746D1*
X3317420Y1514823D1*
X3316448Y1512922D1*
X3315497Y1510048D1*
Y1505250D1*
X3316448Y1502398D1*
X3317420Y1500475D1*
X3319322Y1498574D1*
X3321245Y1497601D1*
X3325070D1*
X3326971Y1498574D1*
X3328894Y1500475D1*
X3329845Y1502398D1*
X3341769Y1517697D2*
X3339845Y1516746D1*
X3337944Y1514823D1*
X3336971Y1512922D1*
X3336021Y1510048D1*
Y1505250D1*
X3336971Y1502398D1*
X3337944Y1500475D1*
X3339845Y1498574D1*
X3341769Y1497601D1*
X3345593D1*
X3347495Y1498574D1*
X3349418Y1500475D1*
X3350369Y1502398D1*
X3351319Y1505250D1*
Y1510048D1*
X3350369Y1512922D1*
X3349418Y1514823D1*
X3347495Y1516746D1*
X3345593Y1517697D1*
X3341769D1*
X3372794Y1497601D2*
Y1517697D1*
X3365144Y1497601D1*
X3357495Y1517697D1*
Y1497601D1*
X3294001Y1567697D2*
Y1547601D1*
X3300699D1*
X3303573Y1548574D1*
X3305497Y1550475D1*
X3306447Y1552398D1*
X3307398Y1555250D1*
Y1560048D1*
X3306447Y1562922D1*
X3305497Y1564823D1*
X3303573Y1566746D1*
X3300699Y1567697D1*
X3294001D1*
X3327922Y1562922D2*
X3326971Y1564823D1*
X3325048Y1566746D1*
X3323146Y1567697D1*
X3319322D1*
X3317398Y1566746D1*
X3315497Y1564823D1*
X3314524Y1562922D1*
X3313574Y1560048D1*
Y1555250D1*
X3314524Y1552398D1*
X3315497Y1550475D1*
X3317398Y1548574D1*
X3319322Y1547601D1*
X3323146D1*
X3325048Y1548574D1*
X3326971Y1550475D1*
X3327922Y1552398D1*
X3339845Y1567697D2*
X3337922Y1566746D1*
X3336021Y1564823D1*
X3335048Y1562922D1*
X3334097Y1560048D1*
Y1555250D1*
X3335048Y1552398D1*
X3336021Y1550475D1*
X3337922Y1548574D1*
X3339845Y1547601D1*
X3343670D1*
X3345571Y1548574D1*
X3347495Y1550475D1*
X3348445Y1552398D1*
X3349396Y1555250D1*
Y1560048D1*
X3348445Y1562922D1*
X3347495Y1564823D1*
X3345571Y1566746D1*
X3343670Y1567697D1*
X3339845D1*
X3370870Y1547601D2*
Y1567697D1*
X3363221Y1547601D1*
X3355572Y1567697D1*
Y1547601D1*
X2862807Y1217360D2*
D77*
X2858496Y1215934D1*
X2855611Y1211623D1*
X2854185Y1204460D1*
Y1200149D1*
X2855611Y1192986D1*
X2858496Y1188675D1*
X2862807Y1187249D1*
X2865659D1*
X2869970Y1188675D1*
X2872822Y1192986D1*
X2874281Y1200149D1*
Y1204460D1*
X2872822Y1211623D1*
X2869970Y1215934D1*
X2865659Y1217360D1*
X2862807D1*
X2872822Y1211623D2*
X2855611Y1192986D1*
X2883544Y1217393D2*
X2895018Y1187249D1*
X2906492Y1217393D1*
X2810434Y1046055D2*
X2827015D1*
X2836278Y1055374D2*
X2839163Y1056833D1*
X2843474Y1061111D1*
Y1031000D1*
X2854197Y1053948D2*
Y1055374D1*
X2855623Y1058259D1*
X2857049Y1059685D1*
X2859934Y1061111D1*
X2865671D1*
X2868523Y1059685D1*
X2869949Y1058259D1*
X2871408Y1055374D1*
Y1052522D1*
X2869949Y1049637D1*
X2867097Y1045359D1*
X2852738Y1031000D1*
X2872834D1*
X2882098Y1061144D2*
X2893572Y1031000D1*
X2905046Y1061144D1*
X2817085Y1371470D2*
Y1345637D1*
X2804185Y1358537D2*
X2830018D1*
X2839281Y1367872D2*
X2842166Y1369331D1*
X2846477Y1373609D1*
Y1343498D1*
X2857200Y1366446D2*
Y1367872D1*
X2858626Y1370757D1*
X2860052Y1372183D1*
X2862937Y1373609D1*
X2868674D1*
X2871526Y1372183D1*
X2872952Y1370757D1*
X2874411Y1367872D1*
Y1365020D1*
X2872952Y1362135D1*
X2870100Y1357857D1*
X2855741Y1343498D1*
X2875837D1*
X2885100Y1373642D2*
X2896574Y1343498D1*
X2908048Y1373642D1*
X2450578Y688738D2*
D78*
Y638498D1*
X2433831Y688738D2*
X2467324D1*
X2499510D2*
Y638498D1*
X2482764Y688738D2*
X2516257D1*
X2531696D2*
Y638498D1*
X2560381D1*
X2590190Y688738D2*
X2585382Y686362D1*
X2580629Y681553D1*
X2578197Y676800D1*
X2575820Y669615D1*
Y657621D1*
X2578197Y650492D1*
X2580629Y645683D1*
X2585382Y640930D1*
X2590190Y638498D1*
X2599752D1*
X2604505Y640930D1*
X2609314Y645683D1*
X2611690Y650492D1*
X2614067Y657621D1*
Y669615D1*
X2611690Y676800D1*
X2609314Y681553D1*
X2604505Y686362D1*
X2599752Y688738D1*
X2590190D1*
X2629506D2*
Y652868D1*
X2631883Y645683D1*
X2636691Y640930D1*
X2643876Y638498D1*
X2648629D1*
X2655814Y640930D1*
X2660623Y645683D1*
X2662999Y652868D1*
Y688738D1*
X2695185D2*
Y638498D1*
X2678439Y688738D2*
X2711932D1*
X2727371Y662430D2*
X2748926D1*
X2756056Y664806D1*
X2758488Y667238D1*
X2760865Y671991D1*
Y679177D1*
X2758488Y683930D1*
X2756056Y686362D1*
X2748926Y688738D1*
X2727371D1*
Y638498D1*
X2776304Y688738D2*
Y652868D1*
X2778680Y645683D1*
X2783489Y640930D1*
X2790674Y638498D1*
X2795427D1*
X2802612Y640930D1*
X2807421Y645683D1*
X2809797Y652868D1*
Y688738D1*
X2841983D2*
Y638498D1*
X2825236Y688738D2*
X2858730D1*
X1524416Y2086008D2*
D75*
Y2103208D1*
X1522470Y2108956D1*
X1520569Y2110901D1*
X1516766Y2112803D1*
X1512920D1*
X1509117Y2110901D1*
X1507172Y2108956D1*
X1505270Y2103208D1*
Y2086008D1*
X1545462D1*
X1524416Y2099405D2*
X1545462Y2112802D1*
X1505270Y2125154D2*
X1545462Y2151949D1*
X1505270D2*
X1545462Y2125154D1*
X1599433Y2073839D2*
X1595630Y2071938D1*
X1591783Y2068091D1*
X1589882Y2064288D1*
Y2056639D1*
X1591783Y2052792D1*
X1595630Y2048990D1*
X1599432Y2047044D1*
X1605181Y2045143D1*
X1614775D1*
X1620479Y2047044D1*
X1624326Y2048990D1*
X1628128Y2052792D1*
X1630074Y2056639D1*
Y2064288D1*
X1628128Y2068091D1*
X1624326Y2071938D1*
X1620479Y2073839D1*
X1614775D1*
Y2064288D1*
X1589882Y2112985D2*
X1630074D1*
X1589882Y2086190D1*
X1630074D1*
X1589882Y2125336D2*
X1630074D1*
Y2138734D1*
X1628128Y2144482D1*
X1624326Y2148329D1*
X1620479Y2150230D1*
X1614775Y2152131D1*
X1605181D1*
X1599433Y2150230D1*
X1595630Y2148329D1*
X1591783Y2144482D1*
X1589882Y2138734D1*
Y2125336D1*
X1672962Y2052661D2*
X1707406D1*
X1690206Y2035461D2*
Y2069905D1*
X1670110Y2105204D2*
Y2086103D1*
X1687310Y2084201D1*
X1685409Y2086103D1*
X1683463Y2091851D1*
Y2097555D1*
X1685409Y2103303D1*
X1689211Y2107149D1*
X1694959Y2109051D1*
X1698762D1*
X1704510Y2107149D1*
X1708356Y2103303D1*
X1710258Y2097555D1*
Y2091851D1*
X1708356Y2086103D1*
X1706411Y2084201D1*
X1702608Y2082256D1*
X1670066Y2121402D2*
X1710258Y2136701D1*
X1670066Y2151999D1*
X490913Y2377710D2*
D74*
Y2337518D1*
Y2360466D2*
X493831Y2369088D1*
X499535Y2374858D1*
X505305Y2377710D1*
X513927D1*
X532454Y2360466D2*
X566876D1*
Y2366236D1*
X564024Y2372006D1*
X561172Y2374858D1*
X555402Y2377710D1*
X546780D1*
X541076Y2374858D1*
X535306Y2369088D1*
X532454Y2360466D1*
Y2354762D1*
X535306Y2346140D1*
X541076Y2340436D1*
X546780Y2337518D1*
X555402D1*
X561172Y2340436D1*
X566876Y2346140D1*
X619825Y2397806D2*
Y2337518D1*
Y2369088D2*
X614121Y2374858D1*
X608351Y2377710D1*
X599729D1*
X594025Y2374858D1*
X588255Y2369088D1*
X585403Y2360466D1*
Y2354762D1*
X588255Y2346140D1*
X594025Y2340436D1*
X599729Y2337518D1*
X608351D1*
X614121Y2340436D1*
X619825Y2346140D1*
X1003413Y2397806D2*
Y2337518D1*
Y2369088D2*
X1009183Y2374858D1*
X1014887Y2377710D1*
X1023509D1*
X1029212Y2374858D1*
X1034983Y2369088D1*
X1037834Y2360466D1*
Y2354762D1*
X1034983Y2346140D1*
X1029212Y2340436D1*
X1023509Y2337518D1*
X1014887D1*
X1009183Y2340436D1*
X1003413Y2346140D1*
X1056362Y2397806D2*
Y2337518D1*
X1074889Y2377710D2*
Y2348992D1*
X1077741Y2340436D1*
X1083511Y2337518D1*
X1092133D1*
X1097837Y2340436D1*
X1106459Y2348992D1*
Y2377710D2*
Y2337518D1*
X1124986Y2360466D2*
X1159408D1*
Y2366236D1*
X1156556Y2372006D1*
X1153704Y2374858D1*
X1147934Y2377710D1*
X1139312D1*
X1133608Y2374858D1*
X1127838Y2369088D1*
X1124986Y2360466D1*
Y2354762D1*
X1127838Y2346140D1*
X1133608Y2340436D1*
X1139312Y2337518D1*
X1147934D1*
X1153704Y2340436D1*
X1159408Y2346140D1*
X737834Y2374858D2*
Y2328896D1*
X734983Y2320340D1*
X732131Y2317422D1*
X726361Y2314570D1*
X717738D1*
X712035Y2317422D1*
X737834Y2366236D2*
X732131Y2371940D1*
X726361Y2374858D1*
X717738D1*
X712035Y2371940D1*
X706265Y2366236D1*
X703413Y2357614D1*
Y2351844D1*
X706265Y2343288D1*
X712035Y2337518D1*
X717738Y2334666D1*
X726361D1*
X732131Y2337518D1*
X737834Y2343288D1*
X756362Y2377710D2*
Y2337518D1*
Y2360466D2*
X759280Y2369088D1*
X764984Y2374858D1*
X770754Y2377710D1*
X779376D1*
X797903Y2360466D2*
X832325D1*
Y2366236D1*
X829473Y2372006D1*
X826621Y2374858D1*
X820851Y2377710D1*
X812229D1*
X806525Y2374858D1*
X800755Y2369088D1*
X797903Y2360466D1*
Y2354762D1*
X800755Y2346140D1*
X806525Y2340436D1*
X812229Y2337518D1*
X820851D1*
X826621Y2340436D1*
X832325Y2346140D1*
X850852Y2360466D2*
X885274D1*
Y2366236D1*
X882422Y2372006D1*
X879570Y2374858D1*
X873800Y2377710D1*
X865178D1*
X859474Y2374858D1*
X853704Y2369088D1*
X850852Y2360466D1*
Y2354762D1*
X853704Y2346140D1*
X859474Y2340436D1*
X865178Y2337518D1*
X873800D1*
X879570Y2340436D1*
X885274Y2346140D1*
X903801Y2377710D2*
Y2337518D1*
Y2366236D2*
X912423Y2374858D1*
X918193Y2377710D1*
X926749D1*
X932519Y2374858D1*
X935371Y2366236D1*
Y2337518D1*
X1787230Y1638169D2*
D79*
X1780576D1*
X1773844Y1634841D1*
X1770517Y1624782D1*
Y1567833D1*
X1760458Y1614723D2*
X1783903D1*
X1849081Y1604664D2*
X1842349Y1611396D1*
X1835618Y1614723D1*
X1825636D1*
X1818904Y1611396D1*
X1812250Y1604664D1*
X1808845Y1594605D1*
Y1587951D1*
X1812250Y1577892D1*
X1818904Y1571237D1*
X1825636Y1567833D1*
X1835618D1*
X1842349Y1571237D1*
X1849081Y1577892D1*
X1870696Y1601337D2*
X1900873D1*
X1910855Y1604664D1*
X1914260Y1608069D1*
X1917587Y1614723D1*
Y1624782D1*
X1914260Y1631437D1*
X1910855Y1634841D1*
X1900873Y1638169D1*
X1870696D1*
Y1567833D1*
X1939202Y1638169D2*
X1942529Y1634841D1*
X1945934Y1638169D1*
X1942529Y1641573D1*
X1939202Y1638169D1*
X1942529Y1614723D2*
Y1567833D1*
X1967549Y1594605D2*
X2007707D1*
Y1601337D1*
X2004380Y1608069D1*
X2001053Y1611396D1*
X1994321Y1614723D1*
X1984262D1*
X1977608Y1611396D1*
X1970876Y1604664D1*
X1967549Y1594605D1*
Y1587951D1*
X1970876Y1577892D1*
X1977608Y1571237D1*
X1984262Y1567833D1*
X1994321D1*
X2001053Y1571237D1*
X2007707Y1577892D1*
X2029322Y1614723D2*
X2066154D1*
X2029322Y1567833D1*
X2066154D1*
X2104482Y1614723D2*
X2097828Y1611396D1*
X2091096Y1604664D1*
X2087769Y1594605D1*
Y1587951D1*
X2091096Y1577892D1*
X2097828Y1571237D1*
X2104482Y1567833D1*
X2114542D1*
X2121273Y1571237D1*
X2127928Y1577892D1*
X2131332Y1587951D1*
Y1594605D1*
X2127928Y1604664D1*
X2121273Y1611396D1*
X2114542Y1614723D1*
X2104482D1*
X2203165Y1621455D2*
X2199838Y1628110D1*
X2193106Y1634841D1*
X2186452Y1638169D1*
X2173065D1*
X2166334Y1634841D1*
X2159679Y1628110D1*
X2156275Y1621455D1*
X2152947Y1611396D1*
Y1594605D1*
X2156275Y1584623D1*
X2159679Y1577892D1*
X2166334Y1571237D1*
X2173065Y1567833D1*
X2186452D1*
X2193106Y1571237D1*
X2199838Y1577892D1*
X2203165Y1584623D1*
X2241494Y1614723D2*
X2234839Y1611396D1*
X2228107Y1604664D1*
X2224780Y1594605D1*
Y1587951D1*
X2228107Y1577892D1*
X2234839Y1571237D1*
X2241494Y1567833D1*
X2251553D1*
X2258285Y1571237D1*
X2264939Y1577892D1*
X2268344Y1587951D1*
Y1594605D1*
X2264939Y1604664D1*
X2258285Y1611396D1*
X2251553Y1614723D1*
X2241494D1*
X2289959D2*
Y1567833D1*
Y1601337D2*
X2300018Y1611396D1*
X2306749Y1614723D1*
X2316731D1*
X2323463Y1611396D1*
X2326790Y1601337D1*
Y1567833D1*
X2358464Y1638169D2*
Y1581219D1*
X2361791Y1571237D1*
X2368523Y1567833D1*
X2375178D1*
X2348405Y1614723D2*
X2371850D1*
X2396793D2*
Y1567833D1*
Y1594605D2*
X2400197Y1604664D1*
X2406852Y1611396D1*
X2413584Y1614723D1*
X2423643D1*
X2461971D2*
X2455317Y1611396D1*
X2448585Y1604664D1*
X2445258Y1594605D1*
Y1587951D1*
X2448585Y1577892D1*
X2455317Y1571237D1*
X2461971Y1567833D1*
X2472030D1*
X2478762Y1571237D1*
X2485416Y1577892D1*
X2488821Y1587951D1*
Y1594605D1*
X2485416Y1604664D1*
X2478762Y1611396D1*
X2472030Y1614723D1*
X2461971D1*
X2510436Y1638169D2*
Y1567833D1*
X2532051Y1638169D2*
Y1567833D1*
X2553666Y1594605D2*
X2593825D1*
Y1601337D1*
X2590497Y1608069D1*
X2587170Y1611396D1*
X2580438Y1614723D1*
X2570379D1*
X2563725Y1611396D1*
X2556993Y1604664D1*
X2553666Y1594605D1*
Y1587951D1*
X2556993Y1577892D1*
X2563725Y1571237D1*
X2570379Y1567833D1*
X2580438D1*
X2587170Y1571237D1*
X2593825Y1577892D1*
X2615440Y1614723D2*
Y1567833D1*
Y1594605D2*
X2618844Y1604664D1*
X2625499Y1611396D1*
X2632230Y1614723D1*
X2642290D1*
X2731946D2*
X2752064Y1567833D1*
X2772105Y1614723D1*
X2793720Y1624705D2*
X2800451Y1628110D1*
X2810511Y1638091D1*
Y1567833D1*
X2835453Y1574564D2*
X2832125Y1571160D1*
X2835453Y1567833D1*
X2838857Y1571160D1*
X2835453Y1574564D1*
X2860472Y1624705D2*
X2867204Y1628110D1*
X2877263Y1638091D1*
Y1567833D1*
X3292179Y592094D2*
D75*
X3288377D1*
X3284530Y590193D1*
X3282629Y584445D1*
Y551902D1*
X3276881Y578697D2*
X3290278D1*
X3304531D2*
Y551902D1*
Y567201D2*
X3306476Y572949D1*
X3310279Y576796D1*
X3314125Y578697D1*
X3319873D1*
X3332225Y567201D2*
X3355173D1*
Y571048D1*
X3353271Y574895D1*
X3351370Y576796D1*
X3347523Y578697D1*
X3341775D1*
X3337973Y576796D1*
X3334126Y572949D1*
X3332225Y567201D1*
Y563399D1*
X3334126Y557650D1*
X3337973Y553848D1*
X3341775Y551902D1*
X3347523D1*
X3351370Y553848D1*
X3355173Y557650D1*
X3390472Y592094D2*
Y551902D1*
Y572949D2*
X3386669Y576796D1*
X3382823Y578697D1*
X3377075D1*
X3373272Y576796D1*
X3369425Y572949D1*
X3367524Y567201D1*
Y563399D1*
X3369425Y557650D1*
X3373272Y553848D1*
X3377075Y551902D1*
X3382823D1*
X3386669Y553848D1*
X3390472Y557650D1*
X3464696Y572949D2*
X3460849Y576796D1*
X3457003Y578697D1*
X3451299D1*
X3447452Y576796D1*
X3443650Y572949D1*
X3441704Y567201D1*
Y563399D1*
X3443650Y557650D1*
X3447452Y553848D1*
X3451299Y551902D1*
X3457003D1*
X3460849Y553848D1*
X3464696Y557650D1*
X3477048Y592094D2*
Y551902D1*
Y571048D2*
X3482796Y576796D1*
X3486642Y578697D1*
X3492390D1*
X3496193Y576796D1*
X3498094Y571048D1*
Y551902D1*
X3533394Y578697D2*
Y551902D1*
Y572949D2*
X3529591Y576796D1*
X3525744Y578697D1*
X3520040D1*
X3516194Y576796D1*
X3512391Y572949D1*
X3510446Y567201D1*
Y563399D1*
X3512391Y557650D1*
X3516194Y553848D1*
X3520040Y551902D1*
X3525744D1*
X3529591Y553848D1*
X3533394Y557650D1*
X3545745Y578697D2*
Y551902D1*
Y571048D2*
X3551493Y576796D1*
X3555340Y578697D1*
X3561044D1*
X3564890Y576796D1*
X3566792Y571048D1*
Y551902D1*
X3602091Y576796D2*
Y546154D1*
X3600190Y540451D1*
X3598288Y538505D1*
X3594442Y536604D1*
X3588694D1*
X3584891Y538505D1*
X3602091Y571048D2*
X3598288Y574850D1*
X3594442Y576796D1*
X3588694D1*
X3584891Y574850D1*
X3581044Y571048D1*
X3579143Y565300D1*
Y561453D1*
X3581044Y555749D1*
X3584891Y551902D1*
X3588694Y550001D1*
X3594442D1*
X3598288Y551902D1*
X3602091Y555749D1*
X3655269Y582500D2*
Y584401D1*
X3657170Y588248D1*
X3659071Y590149D1*
X3662918Y592050D1*
X3670567D1*
X3674370Y590149D1*
X3676271Y588248D1*
X3678216Y584401D1*
Y580598D1*
X3676271Y576752D1*
X3672468Y571048D1*
X3653323Y551902D1*
X3680118D1*
X3703965Y592050D2*
X3698217Y590149D1*
X3694370Y584401D1*
X3692469Y574850D1*
Y569102D1*
X3694370Y559552D1*
X3698217Y553804D1*
X3703965Y551902D1*
X3707768D1*
X3713516Y553804D1*
X3717318Y559552D1*
X3719264Y569102D1*
Y574850D1*
X3717318Y584401D1*
X3713516Y590149D1*
X3707768Y592050D1*
X3703965D1*
X3717318Y584401D2*
X3694370Y559552D1*
X3731615Y584401D2*
X3735462Y586346D1*
X3741210Y592050D1*
Y551902D1*
X3761211D2*
X3780356Y592050D1*
X3753561D1*
X3283132Y523345D2*
Y483153D1*
X3302278Y509948D2*
X3283132Y490802D1*
X3290782Y498452D2*
X3304179Y483153D1*
X3316531Y523345D2*
Y483153D1*
X3328882Y498452D2*
X3351830D1*
Y502298D1*
X3349929Y506145D1*
X3348027Y508047D1*
X3344181Y509948D1*
X3338432D1*
X3334630Y508047D1*
X3330783Y504200D1*
X3328882Y498452D1*
Y494649D1*
X3330783Y488901D1*
X3334630Y485099D1*
X3338432Y483153D1*
X3344181D1*
X3348027Y485099D1*
X3351830Y488901D1*
X3387173Y504200D2*
X3383327Y508047D1*
X3379480Y509948D1*
X3373776D1*
X3369929Y508047D1*
X3366127Y504200D1*
X3364181Y498452D1*
Y494649D1*
X3366127Y488901D1*
X3369929Y485099D1*
X3373776Y483153D1*
X3379480D1*
X3383327Y485099D1*
X3387173Y488901D1*
X3399525Y523345D2*
Y483153D1*
X3418670Y509948D2*
X3399525Y490802D1*
X3407174Y498452D2*
X3420571Y483153D1*
X3432923Y509948D2*
Y483153D1*
Y502298D2*
X3438671Y508047D1*
X3442518Y509948D1*
X3448221D1*
X3452068Y508047D1*
X3453969Y502298D1*
Y483153D1*
X3466321Y498452D2*
X3489269D1*
Y502298D1*
X3487367Y506145D1*
X3485466Y508047D1*
X3481619Y509948D1*
X3475871D1*
X3472069Y508047D1*
X3468222Y504200D1*
X3466321Y498452D1*
Y494649D1*
X3468222Y488901D1*
X3472069Y485099D1*
X3475871Y483153D1*
X3481619D1*
X3485466Y485099D1*
X3489269Y488901D1*
X3501620Y509948D2*
Y483153D1*
Y498452D2*
X3503566Y504200D1*
X3507368Y508047D1*
X3511215Y509948D1*
X3516963D1*
X3568195Y523345D2*
Y483153D1*
X3603494Y509948D2*
Y483153D1*
Y504200D2*
X3599692Y508047D1*
X3595845Y509948D1*
X3590141D1*
X3586295Y508047D1*
X3582492Y504200D1*
X3580547Y498452D1*
Y494649D1*
X3582492Y488901D1*
X3586295Y485099D1*
X3590141Y483153D1*
X3595845D1*
X3599692Y485099D1*
X3603494Y488901D1*
X3615846Y523345D2*
Y483153D1*
Y504200D2*
X3619693Y508047D1*
X3623495Y509948D1*
X3629243D1*
X3633046Y508047D1*
X3636892Y504200D1*
X3638794Y498452D1*
Y494649D1*
X3636892Y488901D1*
X3633046Y485099D1*
X3629243Y483153D1*
X3623495D1*
X3619693Y485099D1*
X3615846Y488901D1*
X504364Y834239D2*
D80*
Y757746D1*
X499611Y743376D1*
X494747Y738622D1*
X485241Y733759D1*
X475624D1*
X466117Y738622D1*
X461364Y743376D1*
X456500Y757746D1*
Y767252D1*
X535242Y815005D2*
X544859Y819869D1*
X559229Y834128D1*
Y733759D1*
X3025988Y1638864D2*
D75*
X3027933Y1636963D1*
X3029835Y1638864D1*
X3027933Y1640766D1*
X3025988Y1638864D1*
X3027933Y1625467D2*
Y1592924D1*
X3025988Y1587176D1*
X3022185Y1585275D1*
X3018339D1*
X3042186Y1625423D2*
Y1606277D1*
X3044087Y1600574D1*
X3047934Y1598628D1*
X3053682D1*
X3057485Y1600574D1*
X3063233Y1606277D1*
Y1625423D2*
Y1598628D1*
X3075584Y1625423D2*
Y1598628D1*
Y1617774D2*
X3081332Y1623522D1*
X3085179Y1625423D1*
X3090883D1*
X3094729Y1623522D1*
X3096631Y1617774D1*
Y1598628D1*
Y1617774D2*
X3102379Y1623522D1*
X3106225Y1625423D1*
X3111929D1*
X3115776Y1623522D1*
X3117721Y1617774D1*
Y1598628D1*
X3130073Y1625423D2*
Y1585231D1*
Y1619675D2*
X3133920Y1623477D1*
X3137722Y1625423D1*
X3143470D1*
X3147317Y1623477D1*
X3151120Y1619675D1*
X3153065Y1613927D1*
Y1610080D1*
X3151120Y1604376D1*
X3147317Y1600529D1*
X3143470Y1598628D1*
X3137722D1*
X3133920Y1600529D1*
X3130073Y1604376D1*
X3165416Y1613927D2*
X3188364D1*
Y1617774D1*
X3186463Y1621620D1*
X3184562Y1623522D1*
X3180715Y1625423D1*
X3174967D1*
X3171164Y1623522D1*
X3167318Y1619675D1*
X3165416Y1613927D1*
Y1610124D1*
X3167318Y1604376D1*
X3171164Y1600574D1*
X3174967Y1598628D1*
X3180715D1*
X3184562Y1600574D1*
X3188364Y1604376D1*
X3200716Y1625423D2*
Y1598628D1*
Y1613927D2*
X3202661Y1619675D1*
X3206464Y1623522D1*
X3210311Y1625423D1*
X3216059D1*
X522175Y1197812D2*
D74*
Y1154768D1*
X525027Y1146146D1*
X530797Y1140443D1*
X539419Y1137524D1*
X545123D1*
X553745Y1140443D1*
X559515Y1146146D1*
X562367Y1154768D1*
Y1197812D1*
X609612Y1137524D2*
Y1197746D1*
X580894Y1157620D1*
X623938D1*
X1613068Y523836D2*
D75*
X1634071D1*
X1622619Y508538D1*
X1628367D1*
X1632170Y506636D1*
X1634071Y504735D1*
X1636016Y498987D1*
Y495185D1*
X1634071Y489437D1*
X1630268Y485590D1*
X1624520Y483689D1*
X1618772D1*
X1613068Y485590D1*
X1611167Y487535D1*
X1609222Y491338D1*
X1648368Y523881D2*
X1663666Y483689D1*
X1678965Y523881D1*
X1695163Y523836D2*
X1716166D1*
X1704714Y508538D1*
X1710462D1*
X1714264Y506636D1*
X1716166Y504735D1*
X1718111Y498987D1*
Y495185D1*
X1716166Y489437D1*
X1712363Y485590D1*
X1706615Y483689D1*
X1700867D1*
X1695163Y485590D1*
X1693262Y487535D1*
X1691316Y491338D1*
X1991634Y522080D2*
X1972533D1*
X1970632Y504881D1*
X1972533Y506782D1*
X1978281Y508727D1*
X1983985D1*
X1989733Y506782D1*
X1993580Y502979D1*
X1995481Y497231D1*
Y493429D1*
X1993580Y487681D1*
X1989733Y483834D1*
X1983985Y481933D1*
X1978281D1*
X1972533Y483834D1*
X1970632Y485779D1*
X1968686Y489582D1*
X2007832Y522125D2*
X2023131Y481933D1*
X2038430Y522125D1*
X4430034Y1277574D2*
D77*
Y1247430D1*
X4440082D1*
X4444393Y1248889D1*
X4447278Y1251741D1*
X4448704Y1254626D1*
X4450130Y1258904D1*
Y1266100D1*
X4448704Y1270411D1*
X4447278Y1273263D1*
X4444393Y1276148D1*
X4440082Y1277574D1*
X4430034D1*
X4482374Y1247430D2*
X4470867Y1277574D1*
X4459393Y1247430D1*
X4463704Y1257478D2*
X4478063D1*
X4513160Y1270411D2*
X4511734Y1273263D1*
X4508849Y1276148D1*
X4505997Y1277574D1*
X4500260D1*
X4497375Y1276148D1*
X4494523Y1273263D1*
X4493064Y1270411D1*
X4491638Y1266100D1*
Y1258904D1*
X4493064Y1254626D1*
X4494523Y1251741D1*
X4497375Y1248889D1*
X4500260Y1247430D1*
X4505997D1*
X4508849Y1248889D1*
X4511734Y1251741D1*
X4513160Y1254626D1*
X4142534Y1222793D2*
Y1192649D1*
X4152582D1*
X4156893Y1194108D1*
X4159778Y1196960D1*
X4161204Y1199845D1*
X4162630Y1204123D1*
Y1211319D1*
X4161204Y1215630D1*
X4159778Y1218482D1*
X4156893Y1221367D1*
X4152582Y1222793D1*
X4142534D1*
X4180515Y1222760D2*
X4176204Y1221334D1*
X4173319Y1217023D1*
X4171893Y1209860D1*
Y1205549D1*
X4173319Y1198386D1*
X4176204Y1194075D1*
X4180515Y1192649D1*
X4183367D1*
X4187678Y1194075D1*
X4190530Y1198386D1*
X4191989Y1205549D1*
Y1209860D1*
X4190530Y1217023D1*
X4187678Y1221334D1*
X4183367Y1222760D1*
X4180515D1*
X4190530Y1217023D2*
X4173319Y1198386D1*
X4201253Y1207705D2*
X4217834D1*
X4227097Y1222793D2*
Y1192649D1*
X4237145D1*
X4241456Y1194108D1*
X4244341Y1196960D1*
X4245767Y1199845D1*
X4247193Y1204123D1*
Y1211319D1*
X4245767Y1215630D1*
X4244341Y1218482D1*
X4241456Y1221367D1*
X4237145Y1222793D1*
X4227097D1*
X4262194Y1192649D2*
X4276553Y1222760D1*
X4256457D1*
X4285816Y1220621D2*
X4308764Y1207688D1*
X4285816Y1194788D1*
X4318028Y1207008D2*
X4330961D1*
X4335239Y1208434D1*
X4336698Y1209893D1*
X4338124Y1212745D1*
Y1217056D1*
X4336698Y1219908D1*
X4335239Y1221367D1*
X4330961Y1222793D1*
X4318028D1*
Y1192649D1*
X4370368D2*
X4358861Y1222793D1*
X4347387Y1192649D1*
X4351698Y1202697D2*
X4366057D1*
X4388254Y1222760D2*
X4383943Y1221334D1*
X4381058Y1217023D1*
X4379632Y1209860D1*
Y1205549D1*
X4381058Y1198386D1*
X4383943Y1194075D1*
X4388254Y1192649D1*
X4391106D1*
X4395417Y1194075D1*
X4398269Y1198386D1*
X4399728Y1205549D1*
Y1209860D1*
X4398269Y1217023D1*
X4395417Y1221334D1*
X4391106Y1222760D1*
X4388254D1*
X4398269Y1217023D2*
X4381058Y1198386D1*
X4408992Y1207705D2*
X4425572D1*
X4434836Y1207008D2*
X4447769D1*
X4452047Y1208434D1*
X4453506Y1209893D1*
X4454932Y1212745D1*
Y1217056D1*
X4453506Y1219908D1*
X4452047Y1221367D1*
X4447769Y1222793D1*
X4434836D1*
Y1192649D1*
X4487177D2*
X4475669Y1222793D1*
X4464195Y1192649D1*
X4468507Y1202697D2*
X4482866D1*
X4502177Y1192649D2*
X4516536Y1222760D1*
X4496440D1*
X4130034Y1172793D2*
Y1142649D1*
X4140082D1*
X4144393Y1144108D1*
X4147278Y1146960D1*
X4148704Y1149845D1*
X4150130Y1154123D1*
Y1161319D1*
X4148704Y1165630D1*
X4147278Y1168482D1*
X4144393Y1171367D1*
X4140082Y1172793D1*
X4130034D1*
X4166556Y1172760D2*
X4162278Y1171334D1*
X4160819Y1168482D1*
Y1165597D1*
X4162278Y1162745D1*
X4165130Y1161286D1*
X4170867Y1159860D1*
X4175178Y1158434D1*
X4178030Y1155549D1*
X4179456Y1152697D1*
Y1148386D1*
X4178030Y1145534D1*
X4176604Y1144075D1*
X4172293Y1142649D1*
X4166556D1*
X4162278Y1144075D1*
X4160819Y1145534D1*
X4159393Y1148386D1*
Y1152697D1*
X4160819Y1155549D1*
X4163704Y1158434D1*
X4167982Y1159860D1*
X4173719Y1161286D1*
X4176604Y1162745D1*
X4178030Y1165597D1*
Y1168482D1*
X4176604Y1171334D1*
X4172293Y1172760D1*
X4166556D1*
X4188720Y1157705D2*
X4205301D1*
X4214564Y1172793D2*
Y1142649D1*
X4224612D1*
X4228923Y1144108D1*
X4231808Y1146960D1*
X4233234Y1149845D1*
X4234660Y1154123D1*
Y1161319D1*
X4233234Y1165630D1*
X4231808Y1168482D1*
X4228923Y1171367D1*
X4224612Y1172793D1*
X4214564D1*
X4243924Y1167023D2*
X4246809Y1168482D1*
X4251120Y1172760D1*
Y1142649D1*
X4277594Y1172760D2*
X4263268D1*
X4261842Y1159860D1*
X4263268Y1161286D1*
X4267579Y1162745D1*
X4271857D1*
X4276168Y1161286D1*
X4279053Y1158434D1*
X4280479Y1154123D1*
Y1151271D1*
X4279053Y1146960D1*
X4276168Y1144075D1*
X4271857Y1142649D1*
X4267579D1*
X4263268Y1144075D1*
X4261842Y1145534D1*
X4260383Y1148386D1*
X4289743Y1170621D2*
X4312691Y1157688D1*
X4289743Y1144788D1*
X4321954Y1157008D2*
X4334887D1*
X4339165Y1158434D1*
X4340624Y1159893D1*
X4342050Y1162745D1*
Y1167056D1*
X4340624Y1169908D1*
X4339165Y1171367D1*
X4334887Y1172793D1*
X4321954D1*
Y1142649D1*
X4372836Y1165630D2*
X4371410Y1168482D1*
X4368525Y1171367D1*
X4365673Y1172793D1*
X4359936D1*
X4357051Y1171367D1*
X4354199Y1168482D1*
X4352740Y1165630D1*
X4351314Y1161319D1*
Y1154123D1*
X4352740Y1149845D1*
X4354199Y1146960D1*
X4357051Y1144108D1*
X4359936Y1142649D1*
X4365673D1*
X4368525Y1144108D1*
X4371410Y1146960D1*
X4372836Y1149845D1*
X4387836Y1142649D2*
X4402195Y1172760D1*
X4382099D1*
X4411459Y1157705D2*
X4428040D1*
X4437303Y1157008D2*
X4450236D1*
X4454514Y1158434D1*
X4455973Y1159893D1*
X4457399Y1162745D1*
Y1167056D1*
X4455973Y1169908D1*
X4454514Y1171367D1*
X4450236Y1172793D1*
X4437303D1*
Y1142649D1*
X4488185Y1165630D2*
X4486759Y1168482D1*
X4483874Y1171367D1*
X4481022Y1172793D1*
X4475285D1*
X4472400Y1171367D1*
X4469548Y1168482D1*
X4468089Y1165630D1*
X4466663Y1161319D1*
Y1154123D1*
X4468089Y1149845D1*
X4469548Y1146960D1*
X4472400Y1144108D1*
X4475285Y1142649D1*
X4481022D1*
X4483874Y1144108D1*
X4486759Y1146960D1*
X4488185Y1149845D1*
X4506070Y1172760D2*
X4501759Y1171334D1*
X4498874Y1167023D1*
X4497448Y1159860D1*
Y1155549D1*
X4498874Y1148386D1*
X4501759Y1144075D1*
X4506070Y1142649D1*
X4508922D1*
X4513233Y1144075D1*
X4516085Y1148386D1*
X4517544Y1155549D1*
Y1159860D1*
X4516085Y1167023D1*
X4513233Y1171334D1*
X4508922Y1172760D1*
X4506070D1*
X4516085Y1167023D2*
X4498874Y1148386D1*
X4159265Y1092649D2*
X4147758Y1122793D1*
X4136284Y1092649D1*
X4140595Y1102697D2*
X4154954D1*
X4177151Y1122760D2*
X4172840Y1121334D1*
X4169955Y1117023D1*
X4168529Y1109860D1*
Y1105549D1*
X4169955Y1098386D1*
X4172840Y1094075D1*
X4177151Y1092649D1*
X4180003D1*
X4184314Y1094075D1*
X4187166Y1098386D1*
X4188625Y1105549D1*
Y1109860D1*
X4187166Y1117023D1*
X4184314Y1121334D1*
X4180003Y1122760D1*
X4177151D1*
X4187166Y1117023D2*
X4169955Y1098386D1*
X4197889Y1112745D2*
Y1092649D1*
Y1107008D2*
X4202200Y1111319D1*
X4205085Y1112745D1*
X4209363D1*
X4212248Y1111319D1*
X4213674Y1107008D1*
Y1092649D1*
X4225822Y1094075D2*
X4224363Y1092649D1*
X4222937Y1094075D1*
X4224363Y1095534D1*
X4225822Y1094075D1*
Y1091223D1*
X4224363Y1088338D1*
X4222937Y1086912D1*
X4258067Y1092649D2*
X4246560Y1122793D1*
X4235086Y1092649D1*
X4239397Y1102697D2*
X4253756D1*
X4267330Y1117023D2*
X4270215Y1118482D1*
X4274526Y1122760D1*
Y1092649D1*
X4283790Y1112745D2*
Y1092649D1*
Y1107008D2*
X4288101Y1111319D1*
X4290986Y1112745D1*
X4295264D1*
X4298149Y1111319D1*
X4299575Y1107008D1*
Y1092649D1*
X4311724Y1094075D2*
X4310264Y1092649D1*
X4308838Y1094075D1*
X4310264Y1095534D1*
X4311724Y1094075D1*
Y1091223D1*
X4310264Y1088338D1*
X4308838Y1086912D1*
X4320987Y1122793D2*
X4328183Y1092649D1*
X4335346Y1122793D1*
X4342509Y1092649D1*
X4349705Y1122793D1*
X4358969Y1112745D2*
Y1092649D1*
Y1104123D2*
X4360428Y1108434D1*
X4363280Y1111319D1*
X4366165Y1112745D1*
X4370476D1*
X4379739D2*
Y1092649D1*
Y1107008D2*
X4384050Y1111319D1*
X4386935Y1112745D1*
X4391213D1*
X4394098Y1111319D1*
X4395524Y1107008D1*
Y1092649D1*
X4407673Y1094075D2*
X4406214Y1092649D1*
X4404788Y1094075D1*
X4406214Y1095534D1*
X4407673Y1094075D1*
Y1091223D1*
X4406214Y1088338D1*
X4404788Y1086912D1*
X4438458Y1115630D2*
X4437033Y1118482D1*
X4434147Y1121367D1*
X4431296Y1122793D1*
X4425559D1*
X4422673Y1121367D1*
X4419822Y1118482D1*
X4418362Y1115630D1*
X4416937Y1111319D1*
Y1104123D1*
X4418362Y1099845D1*
X4419822Y1096960D1*
X4422673Y1094108D1*
X4425559Y1092649D1*
X4431296D1*
X4434147Y1094108D1*
X4437033Y1096960D1*
X4438458Y1099845D1*
X4447722Y1122793D2*
Y1092649D1*
X4464933D1*
X4474197Y1108434D2*
X4487096D1*
X4491407Y1109893D1*
X4492867Y1111319D1*
X4494293Y1114171D1*
Y1117056D1*
X4492867Y1119908D1*
X4491407Y1121367D1*
X4487096Y1122793D1*
X4474197D1*
Y1092649D1*
X4484245Y1108434D2*
X4494293Y1092649D1*
X4503556Y1112745D2*
Y1092649D1*
Y1107008D2*
X4507867Y1111319D1*
X4510752Y1112745D1*
X4515030D1*
X4517915Y1111319D1*
X4519341Y1107008D1*
Y1092649D1*
X4155034Y1057008D2*
X4167967D1*
X4172245Y1058434D1*
X4173704Y1059893D1*
X4175130Y1062745D1*
Y1067056D1*
X4173704Y1069908D1*
X4172245Y1071367D1*
X4167967Y1072793D1*
X4155034D1*
Y1042649D1*
X4205915Y1065630D2*
X4204489Y1068482D1*
X4201604Y1071367D1*
X4198752Y1072793D1*
X4193015D1*
X4190130Y1071367D1*
X4187278Y1068482D1*
X4185819Y1065630D1*
X4184393Y1061319D1*
Y1054123D1*
X4185819Y1049845D1*
X4187278Y1046960D1*
X4190130Y1044108D1*
X4193015Y1042649D1*
X4198752D1*
X4201604Y1044108D1*
X4204489Y1046960D1*
X4205915Y1049845D1*
Y1054123D1*
X4198752D1*
X4215179Y1067023D2*
X4218064Y1068482D1*
X4222375Y1072760D1*
Y1042649D1*
X4234524Y1044075D2*
X4233064Y1042649D1*
X4231638Y1044075D1*
X4233064Y1045534D1*
X4234524Y1044075D1*
Y1041223D1*
X4233064Y1038338D1*
X4231638Y1036912D1*
X4243787Y1057008D2*
X4256720D1*
X4260998Y1058434D1*
X4262457Y1059893D1*
X4263883Y1062745D1*
Y1067056D1*
X4262457Y1069908D1*
X4260998Y1071367D1*
X4256720Y1072793D1*
X4243787D1*
Y1042649D1*
X4294669Y1065630D2*
X4293243Y1068482D1*
X4290358Y1071367D1*
X4287506Y1072793D1*
X4281769D1*
X4278884Y1071367D1*
X4276032Y1068482D1*
X4274573Y1065630D1*
X4273147Y1061319D1*
Y1054123D1*
X4274573Y1049845D1*
X4276032Y1046960D1*
X4278884Y1044108D1*
X4281769Y1042649D1*
X4287506D1*
X4290358Y1044108D1*
X4293243Y1046960D1*
X4294669Y1049845D1*
Y1054123D1*
X4287506D1*
X4312554Y1072760D2*
X4308243Y1071334D1*
X4305358Y1067023D1*
X4303932Y1059860D1*
Y1055549D1*
X4305358Y1048386D1*
X4308243Y1044075D1*
X4312554Y1042649D1*
X4315406D1*
X4319717Y1044075D1*
X4322569Y1048386D1*
X4324028Y1055549D1*
Y1059860D1*
X4322569Y1067023D1*
X4319717Y1071334D1*
X4315406Y1072760D1*
X4312554D1*
X4322569Y1067023D2*
X4305358Y1048386D1*
X4336177Y1044075D2*
X4334718Y1042649D1*
X4333292Y1044075D1*
X4334718Y1045534D1*
X4336177Y1044075D1*
Y1041223D1*
X4334718Y1038338D1*
X4333292Y1036912D1*
X4345440Y1057008D2*
X4358373D1*
X4362651Y1058434D1*
X4364110Y1059893D1*
X4365536Y1062745D1*
Y1067056D1*
X4364110Y1069908D1*
X4362651Y1071367D1*
X4358373Y1072793D1*
X4345440D1*
Y1042649D1*
X4374800Y1072793D2*
Y1042649D1*
X4384848D1*
X4389159Y1044108D1*
X4392044Y1046960D1*
X4393470Y1049845D1*
X4394896Y1054123D1*
Y1061319D1*
X4393470Y1065630D1*
X4392044Y1068482D1*
X4389159Y1071367D1*
X4384848Y1072793D1*
X4374800D1*
X4409896Y1042649D2*
X4424255Y1072760D1*
X4404159D1*
X4436404Y1044075D2*
X4434945Y1042649D1*
X4433519Y1044075D1*
X4434945Y1045534D1*
X4436404Y1044075D1*
Y1041223D1*
X4434945Y1038338D1*
X4433519Y1036912D1*
X4445668Y1057008D2*
X4458601D1*
X4462878Y1058434D1*
X4464338Y1059893D1*
X4465764Y1062745D1*
Y1067056D1*
X4464338Y1069908D1*
X4462878Y1071367D1*
X4458601Y1072793D1*
X4445668D1*
Y1042649D1*
X4496549Y1065630D2*
X4495123Y1068482D1*
X4492238Y1071367D1*
X4489386Y1072793D1*
X4483649D1*
X4480764Y1071367D1*
X4477912Y1068482D1*
X4476453Y1065630D1*
X4475027Y1061319D1*
Y1054123D1*
X4476453Y1049845D1*
X4477912Y1046960D1*
X4480764Y1044108D1*
X4483649Y1042649D1*
X4489386D1*
X4492238Y1044108D1*
X4495123Y1046960D1*
X4496549Y1049845D1*
Y1054123D1*
X4489386D1*
X4507272Y1065597D2*
Y1067023D1*
X4508698Y1069908D1*
X4510124Y1071334D1*
X4513009Y1072760D1*
X4518746D1*
X4521598Y1071334D1*
X4523024Y1069908D1*
X4524483Y1067023D1*
Y1064171D1*
X4523024Y1061286D1*
X4520172Y1057008D1*
X4505813Y1042649D1*
X4525909D1*
X4221332Y971325D2*
Y941181D1*
X4211284Y971325D2*
X4231380D1*
X4250692D2*
Y941181D1*
X4240644Y971325D2*
X4260740D1*
X4270003D2*
Y941181D1*
X4287214D1*
X4296478Y971325D2*
X4297904Y969899D1*
X4299363Y971325D1*
X4297904Y972784D1*
X4296478Y971325D1*
X4297904Y961277D2*
Y941181D1*
X4308627Y961277D2*
Y941181D1*
Y955540D2*
X4312938Y959851D1*
X4315823Y961277D1*
X4320101D1*
X4322986Y959851D1*
X4324412Y955540D1*
Y941181D1*
X4333675Y961277D2*
Y931133D1*
Y956966D2*
X4336560Y959818D1*
X4339412Y961277D1*
X4343723D1*
X4346608Y959818D1*
X4349460Y956966D1*
X4350919Y952655D1*
Y949770D1*
X4349460Y945492D1*
X4346608Y942607D1*
X4343723Y941181D1*
X4339412D1*
X4336560Y942607D1*
X4333675Y945492D1*
X4360183Y961277D2*
Y946918D1*
X4361609Y942640D1*
X4364494Y941181D1*
X4368805D1*
X4371657Y942640D1*
X4375968Y946918D1*
Y961277D2*
Y941181D1*
X4389542Y971325D2*
Y946918D1*
X4390968Y942640D1*
X4393853Y941181D1*
X4396705D1*
X4385231Y961277D2*
X4395279D1*
X4405969Y969153D2*
X4428917Y956220D1*
X4405969Y943320D1*
X4438180Y955540D2*
X4451113D1*
X4455391Y956966D1*
X4456850Y958425D1*
X4458276Y961277D1*
Y965588D1*
X4456850Y968440D1*
X4455391Y969899D1*
X4451113Y971325D1*
X4438180D1*
Y941181D1*
X4467540Y971325D2*
Y941181D1*
X4477588D1*
X4481899Y942640D1*
X4484784Y945492D1*
X4486210Y948377D1*
X4487636Y952655D1*
Y959851D1*
X4486210Y964162D1*
X4484784Y967014D1*
X4481899Y969899D1*
X4477588Y971325D1*
X4467540D1*
X4505521Y971292D2*
X4501210Y969866D1*
X4498325Y965555D1*
X4496899Y958392D1*
Y954081D1*
X4498325Y946918D1*
X4501210Y942607D1*
X4505521Y941181D1*
X4508373D1*
X4512684Y942607D1*
X4515536Y946918D1*
X4516995Y954081D1*
Y958392D1*
X4515536Y965555D1*
X4512684Y969866D1*
X4508373Y971292D1*
X4505521D1*
X4515536Y965555D2*
X4498325Y946918D1*
X4248784Y861277D2*
Y841181D1*
Y852655D2*
X4250244Y856966D1*
X4253095Y859851D1*
X4255980Y861277D1*
X4260292D1*
X4269555Y852655D2*
X4286766D1*
Y855540D1*
X4285340Y858425D1*
X4283914Y859851D1*
X4281029Y861277D1*
X4276718D1*
X4273866Y859851D1*
X4270981Y856966D1*
X4269555Y852655D1*
Y849803D1*
X4270981Y845492D1*
X4273866Y842640D1*
X4276718Y841181D1*
X4281029D1*
X4283914Y842640D1*
X4286766Y845492D1*
X4313240Y871325D2*
Y841181D1*
Y856966D2*
X4310389Y859851D1*
X4307503Y861277D1*
X4303192D1*
X4300341Y859851D1*
X4297455Y856966D1*
X4296030Y852655D1*
Y849803D1*
X4297455Y845492D1*
X4300341Y842640D1*
X4303192Y841181D1*
X4307503D1*
X4310389Y842640D1*
X4313240Y845492D1*
X4322504Y871325D2*
Y841181D1*
X4339715D1*
X4367615Y871325D2*
X4348978D1*
Y841181D1*
X4367615D1*
X4348978Y856966D2*
X4360452D1*
X4376879Y871325D2*
Y841181D1*
X4386927D1*
X4391238Y842640D1*
X4394123Y845492D1*
X4395549Y848377D1*
X4396975Y852655D1*
Y859851D1*
X4395549Y864162D1*
X4394123Y867014D1*
X4391238Y869899D1*
X4386927Y871325D1*
X4376879D1*
X4406238Y869153D2*
X4429186Y856220D1*
X4406238Y843320D1*
X4438450Y855540D2*
X4451383D1*
X4455661Y856966D1*
X4457120Y858425D1*
X4458546Y861277D1*
Y865588D1*
X4457120Y868440D1*
X4455661Y869899D1*
X4451383Y871325D1*
X4438450D1*
Y841181D1*
X4467809Y871325D2*
Y841181D1*
X4480743D1*
X4485054Y842640D1*
X4486480Y844066D1*
X4487905Y846918D1*
Y851229D1*
X4486480Y854114D1*
X4485054Y855540D1*
X4480743Y856966D1*
X4485054Y858425D1*
X4486480Y859851D1*
X4487905Y862703D1*
Y865588D1*
X4486480Y868440D1*
X4485054Y869899D1*
X4480743Y871325D1*
X4467809D1*
Y856966D2*
X4480743D1*
X4514380Y867014D2*
X4512954Y869866D1*
X4508643Y871292D1*
X4505791D1*
X4501480Y869866D1*
X4498595Y865555D1*
X4497169Y858392D1*
Y851229D1*
X4498595Y845492D1*
X4501480Y842607D1*
X4505791Y841181D1*
X4507217D1*
X4511495Y842607D1*
X4514380Y845492D1*
X4515806Y849803D1*
Y851229D1*
X4514380Y855540D1*
X4511495Y858392D1*
X4507217Y859818D1*
X4505791D1*
X4501480Y858392D1*
X4498595Y855540D1*
X4497169Y851229D1*
X4215994Y809851D2*
Y786870D1*
X4214568Y782592D1*
X4213142Y781133D1*
X4210257Y779707D1*
X4205946D1*
X4203094Y781133D1*
X4215994Y805540D2*
X4213142Y808392D1*
X4210257Y809851D1*
X4205946D1*
X4203094Y808392D1*
X4200209Y805540D1*
X4198783Y801229D1*
Y798344D1*
X4200209Y794066D1*
X4203094Y791181D1*
X4205946Y789755D1*
X4210257D1*
X4213142Y791181D1*
X4215994Y794066D1*
X4225258Y811277D2*
Y791181D1*
Y802655D2*
X4226717Y806966D1*
X4229569Y809851D1*
X4232454Y811277D1*
X4236765D1*
X4246028Y802655D2*
X4263239D1*
Y805540D1*
X4261813Y808425D1*
X4260387Y809851D1*
X4257502Y811277D1*
X4253191D1*
X4250339Y809851D1*
X4247454Y806966D1*
X4246028Y802655D1*
Y799803D1*
X4247454Y795492D1*
X4250339Y792640D1*
X4253191Y791181D1*
X4257502D1*
X4260387Y792640D1*
X4263239Y795492D1*
X4272503Y802655D2*
X4289714D1*
Y805540D1*
X4288288Y808425D1*
X4286862Y809851D1*
X4283977Y811277D1*
X4279666D1*
X4276814Y809851D1*
X4273929Y806966D1*
X4272503Y802655D1*
Y799803D1*
X4273929Y795492D1*
X4276814Y792640D1*
X4279666Y791181D1*
X4283977D1*
X4286862Y792640D1*
X4289714Y795492D1*
X4298977Y811277D2*
Y791181D1*
Y805540D2*
X4303288Y809851D1*
X4306173Y811277D1*
X4310451D1*
X4313336Y809851D1*
X4314762Y805540D1*
Y791181D1*
X4324026Y821325D2*
Y791181D1*
X4341237D1*
X4369137Y821325D2*
X4350500D1*
Y791181D1*
X4369137D1*
X4350500Y806966D2*
X4361974D1*
X4378401Y821325D2*
Y791181D1*
X4388449D1*
X4392760Y792640D1*
X4395645Y795492D1*
X4397071Y798377D1*
X4398497Y802655D1*
Y809851D1*
X4397071Y814162D1*
X4395645Y817014D1*
X4392760Y819899D1*
X4388449Y821325D1*
X4378401D1*
X4407760Y819153D2*
X4430708Y806220D1*
X4407760Y793320D1*
X4439972Y805540D2*
X4452905D1*
X4457183Y806966D1*
X4458642Y808425D1*
X4460068Y811277D1*
Y815588D1*
X4458642Y818440D1*
X4457183Y819899D1*
X4452905Y821325D1*
X4439972D1*
Y791181D1*
X4469331Y821325D2*
Y791181D1*
X4482264D1*
X4486575Y792640D1*
X4488001Y794066D1*
X4489427Y796918D1*
Y801229D1*
X4488001Y804114D1*
X4486575Y805540D1*
X4482264Y806966D1*
X4486575Y808425D1*
X4488001Y809851D1*
X4489427Y812703D1*
Y815588D1*
X4488001Y818440D1*
X4486575Y819899D1*
X4482264Y821325D1*
X4469331D1*
Y806966D2*
X4482264D1*
X4515902Y821292D2*
X4501576D1*
X4500150Y808392D1*
X4501576Y809818D1*
X4505887Y811277D1*
X4510165D1*
X4514476Y809818D1*
X4517361Y806966D1*
X4518787Y802655D1*
Y799803D1*
X4517361Y795492D1*
X4514476Y792607D1*
X4510165Y791181D1*
X4505887D1*
X4501576Y792607D1*
X4500150Y794066D1*
X4498691Y796918D1*
X4236283Y771326D2*
Y741182D1*
Y756967D2*
X4239168Y759852D1*
X4242020Y761278D1*
X4246331D1*
X4249183Y759852D1*
X4252068Y756967D1*
X4253494Y752656D1*
Y749804D1*
X4252068Y745493D1*
X4249183Y742641D1*
X4246331Y741182D1*
X4242020D1*
X4239168Y742641D1*
X4236283Y745493D1*
X4262758Y771326D2*
Y741182D1*
X4272021Y761278D2*
Y746919D1*
X4273447Y742641D1*
X4276332Y741182D1*
X4280643D1*
X4283495Y742641D1*
X4287806Y746919D1*
Y761278D2*
Y741182D1*
X4297070Y752656D2*
X4314281D1*
Y755541D1*
X4312855Y758426D1*
X4311429Y759852D1*
X4308544Y761278D1*
X4304233D1*
X4301381Y759852D1*
X4298496Y756967D1*
X4297070Y752656D1*
Y749804D1*
X4298496Y745493D1*
X4301381Y742641D1*
X4304233Y741182D1*
X4308544D1*
X4311429Y742641D1*
X4314281Y745493D1*
X4323544Y771326D2*
Y741182D1*
X4340755D1*
X4368655Y771326D2*
X4350019D1*
Y741182D1*
X4368655D1*
X4350019Y756967D2*
X4361493D1*
X4377919Y771326D2*
Y741182D1*
X4387967D1*
X4392278Y742641D1*
X4395163Y745493D1*
X4396589Y748378D1*
X4398015Y752656D1*
Y759852D1*
X4396589Y764163D1*
X4395163Y767015D1*
X4392278Y769900D1*
X4387967Y771326D1*
X4377919D1*
X4407279Y769154D2*
X4430226Y756221D1*
X4407279Y743321D1*
X4439490Y755541D2*
X4452423D1*
X4456701Y756967D1*
X4458160Y758426D1*
X4459586Y761278D1*
Y765589D1*
X4458160Y768441D1*
X4456701Y769900D1*
X4452423Y771326D1*
X4439490D1*
Y741182D1*
X4468850Y771326D2*
Y741182D1*
X4481783D1*
X4486094Y742641D1*
X4487520Y744067D1*
X4488946Y746919D1*
Y751230D1*
X4487520Y754115D1*
X4486094Y755541D1*
X4481783Y756967D1*
X4486094Y758426D1*
X4487520Y759852D1*
X4488946Y762704D1*
Y765589D1*
X4487520Y768441D1*
X4486094Y769900D1*
X4481783Y771326D1*
X4468850D1*
Y756967D2*
X4481783D1*
X4512568Y741182D2*
Y771293D1*
X4498209Y751230D1*
X4519731D1*
X4133831Y690075D2*
Y659931D1*
X4123783Y690075D2*
X4143879D1*
X4163191D2*
Y659931D1*
X4153143Y690075D2*
X4173239D1*
X4182502D2*
Y659931D1*
X4199713D1*
X4216140Y680027D2*
X4213288Y678601D1*
X4210403Y675716D1*
X4208977Y671405D1*
Y668553D1*
X4210403Y664242D1*
X4213288Y661391D1*
X4216140Y659931D1*
X4220451D1*
X4223336Y661391D1*
X4226188Y664242D1*
X4227647Y668553D1*
Y671405D1*
X4226188Y675716D1*
X4223336Y678601D1*
X4220451Y680027D1*
X4216140D1*
X4236910D2*
Y665668D1*
X4238336Y661391D1*
X4241221Y659931D1*
X4245532D1*
X4248384Y661391D1*
X4252695Y665668D1*
Y680027D2*
Y659931D1*
X4266270Y690075D2*
Y665668D1*
X4267696Y661391D1*
X4270581Y659931D1*
X4273433D1*
X4261959Y680027D2*
X4272007D1*
X4282696D2*
Y649883D1*
Y675716D2*
X4285581Y678568D1*
X4288433Y680027D1*
X4292744D1*
X4295629Y678568D1*
X4298481Y675716D1*
X4299940Y671405D1*
Y668520D1*
X4298481Y664242D1*
X4295629Y661357D1*
X4292744Y659931D1*
X4288433D1*
X4285581Y661357D1*
X4282696Y664242D1*
X4309204Y680027D2*
Y665668D1*
X4310630Y661391D1*
X4313515Y659931D1*
X4317826D1*
X4320678Y661391D1*
X4324989Y665668D1*
Y680027D2*
Y659931D1*
X4338563Y690075D2*
Y665668D1*
X4339989Y661391D1*
X4342875Y659931D1*
X4345726D1*
X4334252Y680027D2*
X4344300D1*
X4354990Y687903D2*
X4377938Y674970D1*
X4354990Y662070D1*
X4387201Y674290D2*
X4400134D1*
X4404412Y675716D1*
X4405871Y677176D1*
X4407297Y680027D1*
Y684338D1*
X4405871Y687190D1*
X4404412Y688649D1*
X4400134Y690075D1*
X4387201D1*
Y659931D1*
X4425183Y690075D2*
X4422298Y688649D1*
X4419446Y685764D1*
X4417987Y682913D1*
X4416561Y678601D1*
Y671405D1*
X4417987Y667128D1*
X4419446Y664242D1*
X4422298Y661391D1*
X4425183Y659931D1*
X4430920D1*
X4433772Y661391D1*
X4436657Y664242D1*
X4438083Y667128D1*
X4439509Y671405D1*
Y678601D1*
X4438083Y682913D1*
X4436657Y685764D1*
X4433772Y688649D1*
X4430920Y690075D1*
X4425183D1*
X4448772Y675716D2*
X4461672D1*
X4465983Y677176D1*
X4467442Y678601D1*
X4468868Y681453D1*
Y684338D1*
X4467442Y687190D1*
X4465983Y688649D1*
X4461672Y690075D1*
X4448772D1*
Y659931D1*
X4458820Y675716D2*
X4468868Y659931D1*
X4488180Y690075D2*
Y659931D1*
X4478132Y690075D2*
X4498228D1*
X4526162D2*
X4507492D1*
Y659931D1*
Y675716D2*
X4518965D1*
X522656Y1398986D2*
X548489D1*
X535589Y1386086D2*
Y1411919D1*
X530532Y1421183D2*
X550628Y1429805D1*
X530532Y1438394D1*
X643446Y1384462D2*
Y1401043D1*
X638406Y1410306D2*
X658502Y1418928D1*
X638406Y1427517D1*
X1028266Y1118375D2*
X1054099D1*
X1041199Y1105475D2*
Y1131308D1*
X1036142Y1140571D2*
X1056238Y1149193D1*
X1036142Y1157782D1*
Y1174209D2*
X1037568Y1171357D1*
X1040453Y1168472D1*
X1044764Y1167046D1*
X1047616D1*
X1051927Y1168472D1*
X1054779Y1171357D1*
X1056238Y1174209D1*
Y1178520D1*
X1054779Y1181405D1*
X1051927Y1184257D1*
X1047616Y1185716D1*
X1044764D1*
X1040453Y1184257D1*
X1037568Y1181405D1*
X1036142Y1178520D1*
Y1174209D1*
Y1194979D2*
X1050501D1*
X1054779Y1196405D1*
X1056238Y1199290D1*
Y1203601D1*
X1054779Y1206453D1*
X1050501Y1210764D1*
X1036142D2*
X1056238D1*
X1026094Y1224339D2*
X1050501D1*
X1054779Y1225765D1*
X1056238Y1228650D1*
Y1231502D1*
X1036142Y1220028D2*
Y1230076D1*
X830307Y1103851D2*
Y1120432D1*
X825267Y1129696D2*
X845363Y1138318D1*
X825267Y1146907D1*
Y1163333D2*
X826693Y1160481D1*
X829578Y1157596D1*
X833889Y1156170D1*
X836741D1*
X841052Y1157596D1*
X843903Y1160481D1*
X845363Y1163333D1*
Y1167644D1*
X843903Y1170529D1*
X841052Y1173381D1*
X836741Y1174840D1*
X833889D1*
X829578Y1173381D1*
X826693Y1170529D1*
X825267Y1167644D1*
Y1163333D1*
Y1184104D2*
X839626D1*
X843903Y1185530D1*
X845363Y1188415D1*
Y1192726D1*
X843903Y1195578D1*
X839626Y1199889D1*
X825267D2*
X845363D1*
X815219Y1213463D2*
X839626D1*
X843903Y1214889D1*
X845363Y1217774D1*
Y1220626D1*
X825267Y1209152D2*
Y1219200D1*
X920518Y1125958D2*
X921944Y1121647D1*
X926255Y1118762D1*
X933418Y1117336D1*
X937729D1*
X944892Y1118762D1*
X949203Y1121647D1*
X950629Y1125958D1*
Y1128810D1*
X949203Y1133121D1*
X944892Y1135973D1*
X937729Y1137432D1*
X933418D1*
X926255Y1135973D1*
X921944Y1133121D1*
X920518Y1128810D1*
Y1125958D1*
X926255Y1135973D2*
X944892Y1118762D1*
X920485Y1146695D2*
X950629Y1158169D1*
X920485Y1169643D1*
X1686913Y1514582D2*
D75*
X1646765Y1533728D1*
Y1506933D1*
Y1555630D2*
X1648666Y1549926D1*
X1652469Y1547980D1*
X1656315D1*
X1660118Y1549926D1*
X1662063Y1553728D1*
X1663965Y1561378D1*
X1665866Y1567126D1*
X1669713Y1570928D1*
X1673515Y1572830D1*
X1679263D1*
X1683066Y1570928D1*
X1685011Y1569027D1*
X1686913Y1563279D1*
Y1555630D1*
X1685011Y1549926D1*
X1683066Y1547980D1*
X1679263Y1546079D1*
X1673515D1*
X1669713Y1547980D1*
X1665866Y1551827D1*
X1663965Y1557531D1*
X1662063Y1565180D1*
X1660118Y1569027D1*
X1656315Y1570928D1*
X1652469D1*
X1648666Y1569027D1*
X1646765Y1563279D1*
Y1555630D1*
X1654414Y1585181D2*
X1652469Y1589028D1*
X1646765Y1594776D1*
X1686913D1*
X1656315Y1609073D2*
X1654414D1*
X1650567Y1610974D1*
X1648666Y1612875D1*
X1646765Y1616722D1*
Y1624371D1*
X1648666Y1628174D1*
X1650567Y1630075D1*
X1654414Y1632021D1*
X1658217D1*
X1662063Y1630075D1*
X1667767Y1626272D1*
X1686913Y1607127D1*
Y1633922D1*
X1685985Y865510D2*
X1645837Y884656D1*
Y857861D1*
X1659190Y921900D2*
X1664938Y919955D1*
X1668785Y916152D1*
X1670686Y910404D1*
Y908503D1*
X1668785Y902755D1*
X1664938Y898952D1*
X1659190Y897007D1*
X1657289D1*
X1651541Y898952D1*
X1647738Y902755D1*
X1645837Y908503D1*
Y910404D1*
X1647738Y916152D1*
X1651541Y919955D1*
X1659190Y921900D1*
X1668785D1*
X1678335Y919955D1*
X1684083Y916152D1*
X1685985Y910404D1*
Y906602D1*
X1684083Y900854D1*
X1680237Y898952D1*
X1653486Y934252D2*
X1651541Y938098D1*
X1645837Y943847D1*
X1685985Y943846D1*
X1655388Y958143D2*
X1653486D1*
X1649639Y960045D1*
X1647738Y961946D1*
X1645837Y965793D1*
Y973442D1*
X1647738Y977245D1*
X1649639Y979146D1*
X1653486Y981091D1*
X1657289D1*
X1661136Y979146D1*
X1666839Y975343D1*
X1685985Y956198D1*
Y982993D1*
X2544737Y1463864D2*
X2546683Y1461963D1*
X2548584Y1463864D1*
X2546683Y1465766D1*
X2544737Y1463864D1*
X2546683Y1450467D2*
Y1417924D1*
X2544737Y1412176D1*
X2540935Y1410275D1*
X2537088D1*
X2560935Y1450423D2*
Y1431277D1*
X2562837Y1425574D1*
X2566683Y1423628D1*
X2572431D1*
X2576234Y1425574D1*
X2581982Y1431277D1*
Y1450423D2*
Y1423628D1*
X2594333Y1450423D2*
Y1423628D1*
Y1442774D2*
X2600081Y1448522D1*
X2603928Y1450423D1*
X2609632D1*
X2613479Y1448522D1*
X2615380Y1442774D1*
Y1423628D1*
Y1442774D2*
X2621128Y1448522D1*
X2624975Y1450423D1*
X2630679D1*
X2634525Y1448522D1*
X2636471Y1442774D1*
Y1423628D1*
X2648822Y1450423D2*
Y1410231D1*
Y1444675D2*
X2652669Y1448477D1*
X2656472Y1450423D1*
X2662220D1*
X2666066Y1448477D1*
X2669869Y1444675D1*
X2671814Y1438927D1*
Y1435080D1*
X2669869Y1429376D1*
X2666066Y1425529D1*
X2662220Y1423628D1*
X2656472D1*
X2652669Y1425529D1*
X2648822Y1429376D1*
X2684166Y1438927D2*
X2707114D1*
Y1442774D1*
X2705212Y1446620D1*
X2703311Y1448522D1*
X2699464Y1450423D1*
X2693716D1*
X2689914Y1448522D1*
X2686067Y1444675D1*
X2684166Y1438927D1*
Y1435124D1*
X2686067Y1429376D1*
X2689914Y1425574D1*
X2693716Y1423628D1*
X2699464D1*
X2703311Y1425574D1*
X2707114Y1429376D1*
X2719465Y1450423D2*
Y1423628D1*
Y1438927D2*
X2721411Y1444675D1*
X2725213Y1448522D1*
X2729060Y1450423D1*
X2734808D1*
X799482Y1688227D2*
Y1648035D1*
X822429D1*
X834781Y1680533D2*
X838628Y1682479D1*
X844376Y1688183D1*
Y1648035D1*
X1055731Y1694478D2*
Y1654286D1*
X1078679D1*
X1092976Y1684883D2*
Y1686784D1*
X1094877Y1690631D1*
X1096778Y1692532D1*
X1100625Y1694433D1*
X1108274D1*
X1112077Y1692532D1*
X1113978Y1690631D1*
X1115924Y1686784D1*
Y1682982D1*
X1113978Y1679135D1*
X1110176Y1673431D1*
X1091030Y1654286D1*
X1117825D1*
M02*
